<svg xmlns="http://www.w3.org/2000/svg" xmlns:xlink="http://www.w3.org/1999/xlink" viewBox="0 0 168.83 168.11"><defs><style>.cls-1{isolation:isolate;}.cls-2{fill:url(#linear-gradient);}.cls-10,.cls-11,.cls-12,.cls-13,.cls-14,.cls-140,.cls-15,.cls-16,.cls-17,.cls-18,.cls-19,.cls-20,.cls-21,.cls-22,.cls-23,.cls-24,.cls-25,.cls-26,.cls-27,.cls-28,.cls-29,.cls-3,.cls-30,.cls-31,.cls-32,.cls-33,.cls-34,.cls-35,.cls-36,.cls-37,.cls-38,.cls-39,.cls-40,.cls-41,.cls-42,.cls-43,.cls-44,.cls-45,.cls-46,.cls-47,.cls-7,.cls-8,.cls-9{fill:#3c5185;}.cls-141,.cls-145,.cls-153,.cls-4{mix-blend-mode:multiply;}.cls-4{fill:url(#radial-gradient);}.cls-5{fill:#4a65a3;}.cls-133,.cls-6{opacity:0.3;}.cls-7,.cls-84{opacity:0;}.cls-8,.cls-85{opacity:0.02;}.cls-86,.cls-9{opacity:0.05;}.cls-10,.cls-87{opacity:0.07;}.cls-11,.cls-88{opacity:0.1;}.cls-12,.cls-89{opacity:0.12;}.cls-13,.cls-90{opacity:0.15;}.cls-14,.cls-91{opacity:0.17;}.cls-15,.cls-92{opacity:0.2;}.cls-16,.cls-93{opacity:0.22;}.cls-17,.cls-94{opacity:0.24;}.cls-18,.cls-95{opacity:0.27;}.cls-19,.cls-96{opacity:0.29;}.cls-20,.cls-97{opacity:0.32;}.cls-21,.cls-98{opacity:0.34;}.cls-22,.cls-99{opacity:0.37;}.cls-100,.cls-23{opacity:0.39;}.cls-101,.cls-24{opacity:0.41;}.cls-102,.cls-25{opacity:0.44;}.cls-103,.cls-26{opacity:0.46;}.cls-104,.cls-27{opacity:0.49;}.cls-105,.cls-28{opacity:0.51;}.cls-106,.cls-29{opacity:0.54;}.cls-107,.cls-30{opacity:0.56;}.cls-108,.cls-31{opacity:0.59;}.cls-109,.cls-32{opacity:0.61;}.cls-110,.cls-33{opacity:0.63;}.cls-111,.cls-34{opacity:0.66;}.cls-112,.cls-35{opacity:0.68;}.cls-113,.cls-36{opacity:0.71;}.cls-114,.cls-37{opacity:0.73;}.cls-115,.cls-38{opacity:0.76;}.cls-116,.cls-39{opacity:0.78;}.cls-117,.cls-40{opacity:0.8;}.cls-118,.cls-41{opacity:0.83;}.cls-119,.cls-42{opacity:0.85;}.cls-120,.cls-43{opacity:0.88;}.cls-121,.cls-44{opacity:0.9;}.cls-122,.cls-45{opacity:0.93;}.cls-123,.cls-46{opacity:0.95;}.cls-124,.cls-47{opacity:0.98;}.cls-48{fill:url(#linear-gradient-2);}.cls-49{fill:#f3f8fe;}.cls-50{fill:#a5cbef;}.cls-51,.cls-52,.cls-53,.cls-54{opacity:0.1;}.cls-51{fill:url(#linear-gradient-3);}.cls-52{fill:url(#linear-gradient-4);}.cls-53{fill:url(#linear-gradient-5);}.cls-54{fill:url(#linear-gradient-6);}.cls-55,.cls-84{fill:#fff;}.cls-56{fill:#9eb1d8;}.cls-57{fill:url(#linear-gradient-7);}.cls-58{fill:url(#linear-gradient-8);}.cls-59{fill:url(#linear-gradient-9);}.cls-60{fill:#c9e0f5;}.cls-140,.cls-61,.cls-65{opacity:0.2;}.cls-61{fill:url(#linear-gradient-10);}.cls-62{fill:url(#linear-gradient-11);}.cls-63{fill:url(#linear-gradient-12);}.cls-64{fill:url(#linear-gradient-13);}.cls-65{fill:url(#linear-gradient-14);}.cls-66{fill:url(#linear-gradient-15);}.cls-67{fill:url(#linear-gradient-16);}.cls-68{fill:url(#linear-gradient-17);}.cls-69{fill:#ffc107;}.cls-70{fill:url(#linear-gradient-18);}.cls-71{fill:url(#linear-gradient-19);}.cls-72{fill:#f6f9fc;}.cls-73{fill:#d1e1f2;}.cls-74{fill:url(#linear-gradient-20);}.cls-75{fill:url(#linear-gradient-21);}.cls-76{fill:url(#linear-gradient-22);}.cls-77{fill:url(#linear-gradient-23);}.cls-78{fill:url(#linear-gradient-24);}.cls-79{fill:url(#linear-gradient-25);}.cls-80{fill:url(#linear-gradient-26);}.cls-81{fill:url(#linear-gradient-27);}.cls-82{fill:url(#linear-gradient-28);}.cls-83{opacity:0.14;}.cls-85{fill:#fafbfc;}.cls-86{fill:#f5f7f9;}.cls-87{fill:#f1f2f6;}.cls-88{fill:#eceef3;}.cls-89{fill:#e7eaf0;}.cls-90{fill:#e2e6ed;}.cls-91{fill:#dee1ea;}.cls-92{fill:#d9dde7;}.cls-93{fill:#d4d9e4;}.cls-94{fill:#cfd5e1;}.cls-95{fill:#cbd0de;}.cls-96{fill:#c6ccdb;}.cls-97{fill:#c1c8d8;}.cls-98{fill:#bcc4d5;}.cls-99{fill:#b8bfd2;}.cls-100{fill:#b3bbcf;}.cls-101{fill:#aeb7cc;}.cls-102{fill:#a9b3c9;}.cls-103{fill:#a5aec6;}.cls-104{fill:#a0aac3;}.cls-105{fill:#9ba6c1;}.cls-106{fill:#96a2be;}.cls-107{fill:#929dbb;}.cls-108{fill:#8d99b8;}.cls-109{fill:#8895b5;}.cls-110{fill:#8391b2;}.cls-111{fill:#7f8caf;}.cls-112{fill:#7a88ac;}.cls-113{fill:#7584a9;}.cls-114{fill:#7080a6;}.cls-115{fill:#6c7ba3;}.cls-116{fill:#6777a0;}.cls-117{fill:#62739d;}.cls-118{fill:#5d6f9a;}.cls-119{fill:#596a97;}.cls-120{fill:#546694;}.cls-121,.cls-148{fill:#4f6291;}.cls-122{fill:#4a5e8e;}.cls-123{fill:#46598b;}.cls-124{fill:#415588;}.cls-125{fill:url(#linear-gradient-29);}.cls-126{fill:#edf5fc;}.cls-127{fill:#5d7dbe;}.cls-128{fill:#f9f7f9;}.cls-129{fill:#ef9ea3;}.cls-130{fill:url(#linear-gradient-30);}.cls-131{fill:url(#linear-gradient-31);}.cls-132{fill:url(#linear-gradient-32);}.cls-133{fill:#231f20;}.cls-134{fill:#f2b1b5;}.cls-135{fill:#63749d;}.cls-136{fill:#48486a;}.cls-137{fill:url(#linear-gradient-33);}.cls-138{fill:url(#linear-gradient-34);}.cls-139{fill:url(#linear-gradient-35);}.cls-141{fill:url(#radial-gradient-2);}.cls-142{fill:url(#linear-gradient-36);}.cls-143{fill:url(#linear-gradient-37);}.cls-144{fill:url(#linear-gradient-38);}.cls-145{fill:url(#radial-gradient-3);}.cls-146{fill:url(#linear-gradient-39);}.cls-147{fill:url(#linear-gradient-40);}.cls-149{fill:url(#linear-gradient-41);}.cls-150{fill:url(#linear-gradient-42);}.cls-151{fill:#b7d5f2;}.cls-152{fill:#dbeaf9;}.cls-153{opacity:0.5;fill:url(#radial-gradient-4);}.cls-154{fill:#2842a2;}.cls-155{opacity:0.83;fill:url(#linear-gradient-43);}.cls-156{fill:#6e84b5;opacity:0.49;}.cls-157{fill:url(#linear-gradient-44);}</style><linearGradient id="linear-gradient" x1="108.03" y1="168.33" x2="61.85" y2="17.72" gradientUnits="userSpaceOnUse"><stop offset="0.14" stop-color="#fff"/><stop offset="1" stop-color="#e1ebf7"/></linearGradient><radialGradient id="radial-gradient" cx="76.08" cy="7751.14" r="10.24" gradientTransform="translate(0 -3852.14) scale(1 0.52)" gradientUnits="userSpaceOnUse"><stop offset="0" stop-color="#3c5185"/><stop offset="0.06" stop-color="#506291"/><stop offset="0.25" stop-color="#8d9ab8"/><stop offset="0.43" stop-color="#bec5d7"/><stop offset="0.59" stop-color="#e2e5ed"/><stop offset="0.72" stop-color="#f7f8fa"/><stop offset="0.8" stop-color="#fff"/></radialGradient><linearGradient id="linear-gradient-2" x1="-126.2" y1="127.69" x2="-279.11" y2="60.26" gradientTransform="matrix(-1, 0, 0, 1, -102.74, 0)" gradientUnits="userSpaceOnUse"><stop offset="0.04" stop-color="#a5cbef"/><stop offset="0.22" stop-color="#b9d7f2"/><stop offset="0.53" stop-color="#d4e6f7"/><stop offset="0.79" stop-color="#e4f0fa"/><stop offset="1" stop-color="#eaf3fb"/></linearGradient><linearGradient id="linear-gradient-3" x1="63" y1="22.98" x2="62.74" y2="123.77" gradientUnits="userSpaceOnUse"><stop offset="0.06" stop-color="#fff"/><stop offset="0.1" stop-color="#fffdf7"/><stop offset="0.16" stop-color="#fff8e1"/><stop offset="0.23" stop-color="#ffefbd"/><stop offset="0.31" stop-color="#ffe28b"/><stop offset="0.4" stop-color="#ffd24d"/><stop offset="0.48" stop-color="#ffc107"/><stop offset="0.5" stop-color="#ffc61a"/><stop offset="0.55" stop-color="#ffd556"/><stop offset="0.61" stop-color="#ffe28a"/><stop offset="0.66" stop-color="#ffecb4"/><stop offset="0.71" stop-color="#fff4d5"/><stop offset="0.75" stop-color="#fffaec"/><stop offset="0.8" stop-color="#fffefa"/><stop offset="0.83" stop-color="#fff"/></linearGradient><linearGradient id="linear-gradient-4" x1="71.5" y1="21.69" x2="71.29" y2="105.51" xlink:href="#linear-gradient-3"/><linearGradient id="linear-gradient-5" x1="104.13" y1="21.34" x2="103.89" y2="114.51" xlink:href="#linear-gradient-3"/><linearGradient id="linear-gradient-6" x1="112.66" y1="24.23" x2="112.42" y2="122.64" xlink:href="#linear-gradient-3"/><linearGradient id="linear-gradient-7" x1="58.2" y1="89.28" x2="82.8" y2="89.28" gradientUnits="userSpaceOnUse"><stop offset="0" stop-color="#3c5185"/><stop offset="1" stop-color="#5d7dbe"/></linearGradient><linearGradient id="linear-gradient-8" x1="94.71" y1="89.28" x2="119.31" y2="89.28" xlink:href="#linear-gradient-7"/><linearGradient id="linear-gradient-9" x1="88.67" y1="22.72" x2="89.78" y2="1.15" xlink:href="#linear-gradient-7"/><linearGradient id="linear-gradient-10" x1="52.98" y1="47.62" x2="125.04" y2="47.62" gradientUnits="userSpaceOnUse"><stop offset="0.14" stop-color="#ff9800"/><stop offset="0.73" stop-color="#f6cf2e"/></linearGradient><linearGradient id="linear-gradient-11" x1="52.05" y1="47.54" x2="54.4" y2="49.89" gradientUnits="userSpaceOnUse"><stop offset="0" stop-color="#ffc107"/><stop offset="0.85" stop-color="#ff9800"/></linearGradient><linearGradient id="linear-gradient-12" x1="66.03" y1="58.41" x2="67.8" y2="60.17" xlink:href="#linear-gradient-11"/><linearGradient id="linear-gradient-13" x1="96.6" y1="61.65" x2="97.75" y2="62.79" xlink:href="#linear-gradient-11"/><linearGradient id="linear-gradient-14" x1="59.71" y1="35" x2="118.1" y2="35" xlink:href="#linear-gradient-10"/><linearGradient id="linear-gradient-15" x1="69.51" y1="43.23" x2="71.41" y2="45.13" xlink:href="#linear-gradient-11"/><linearGradient id="linear-gradient-16" x1="97.31" y1="45.77" x2="98.74" y2="47.2" xlink:href="#linear-gradient-11"/><linearGradient id="linear-gradient-17" x1="113.98" y1="39.71" x2="114.91" y2="40.64" xlink:href="#linear-gradient-11"/><linearGradient id="linear-gradient-18" x1="-328.12" y1="88.04" x2="-305.06" y2="88.04" gradientTransform="matrix(-1, 0, 0, 1, -292.88, 0)" gradientUnits="userSpaceOnUse"><stop offset="0" stop-color="#f2f4fa"/><stop offset="0.87" stop-color="#d6e4f3"/><stop offset="1" stop-color="#d1e1f2"/></linearGradient><linearGradient id="linear-gradient-19" x1="-315.66" y1="90.75" x2="-315.55" y2="75.65" gradientTransform="matrix(-1, 0, 0, 1, -292.88, 0)" gradientUnits="userSpaceOnUse"><stop offset="0" stop-color="#f2f4fa"/><stop offset="0.92" stop-color="#d6dcee"/><stop offset="1" stop-color="#d3daed"/></linearGradient><linearGradient id="linear-gradient-20" x1="-337.66" y1="63.51" x2="-292.88" y2="63.51" gradientTransform="matrix(-1, 0, 0, 1, -292.88, 0)" gradientUnits="userSpaceOnUse"><stop offset="0" stop-color="#3c5185"/><stop offset="0.27" stop-color="#476098"/><stop offset="0.73" stop-color="#5775b4"/><stop offset="1" stop-color="#5d7dbe"/></linearGradient><linearGradient id="linear-gradient-21" x1="6.87" y1="59.77" x2="26.59" y2="48.21" gradientUnits="userSpaceOnUse"><stop offset="0.15" stop-color="#ff9800"/><stop offset="1" stop-color="#ffc107"/></linearGradient><linearGradient id="linear-gradient-22" x1="12.79" y1="69.86" x2="32.51" y2="58.3" xlink:href="#linear-gradient-21"/><linearGradient id="linear-gradient-23" x1="8.77" y1="63" x2="28.49" y2="51.44" xlink:href="#linear-gradient-21"/><linearGradient id="linear-gradient-24" x1="10.79" y1="66.45" x2="30.51" y2="54.89" xlink:href="#linear-gradient-21"/><linearGradient id="linear-gradient-25" x1="14.8" y1="73.3" x2="34.52" y2="61.73" xlink:href="#linear-gradient-21"/><linearGradient id="linear-gradient-26" x1="14.8" y1="73.28" x2="34.52" y2="61.72" xlink:href="#linear-gradient-21"/><linearGradient id="linear-gradient-27" x1="12.88" y1="70.02" x2="32.6" y2="58.46" xlink:href="#linear-gradient-21"/><linearGradient id="linear-gradient-28" x1="9.85" y1="64.85" x2="29.57" y2="53.29" xlink:href="#linear-gradient-21"/><linearGradient id="linear-gradient-29" x1="102.7" y1="113.19" x2="140.21" y2="113.19" gradientUnits="userSpaceOnUse"><stop offset="0" stop-color="#5d7dbe"/><stop offset="1" stop-color="#3c5185"/></linearGradient><linearGradient id="linear-gradient-30" x1="252.19" y1="129.79" x2="256.44" y2="129.79" gradientTransform="matrix(-1, 0, 0, 1, 283.63, 0)" gradientUnits="userSpaceOnUse"><stop offset="0" stop-color="#a8d9fb"/><stop offset="1" stop-color="#fff"/></linearGradient><linearGradient id="linear-gradient-31" x1="247.83" y1="130.44" x2="256.44" y2="130.44" xlink:href="#linear-gradient-30"/><linearGradient id="linear-gradient-32" x1="247.83" y1="132.2" x2="250.55" y2="132.2" xlink:href="#linear-gradient-30"/><linearGradient id="linear-gradient-33" x1="131.56" y1="136.19" x2="135.97" y2="136.19" gradientUnits="userSpaceOnUse"><stop offset="0" stop-color="#5d7dbe"/><stop offset="1" stop-color="#3c5185"/></linearGradient><linearGradient id="linear-gradient-34" x1="126.64" y1="137.59" x2="133.45" y2="137.59" xlink:href="#linear-gradient-33"/><linearGradient id="linear-gradient-35" x1="117.73" y1="125.03" x2="136.25" y2="125.03" gradientUnits="userSpaceOnUse"><stop offset="0" stop-color="#fff"/><stop offset="0.18" stop-color="#f9fcff"/><stop offset="0.43" stop-color="#e8f5fe"/><stop offset="0.71" stop-color="#cce9fd"/><stop offset="1" stop-color="#a8d9fb"/></linearGradient><radialGradient id="radial-gradient-2" cx="-575.07" cy="7651.27" r="7.23" gradientTransform="matrix(-1, 0, 0, 0.52, -414.79, -3851.77)" gradientUnits="userSpaceOnUse"><stop offset="0.09" stop-color="#3c5185"/><stop offset="0.16" stop-color="#506291"/><stop offset="0.38" stop-color="#8d9ab8"/><stop offset="0.58" stop-color="#bec5d7"/><stop offset="0.76" stop-color="#e2e5ed"/><stop offset="0.91" stop-color="#f7f8fa"/><stop offset="1" stop-color="#fff"/></radialGradient><linearGradient id="linear-gradient-36" x1="216.07" y1="105.25" x2="226.3" y2="105.25" gradientTransform="translate(-60.81)" gradientUnits="userSpaceOnUse"><stop offset="0" stop-color="#a5cbef"/><stop offset="0.44" stop-color="#cee3f6"/><stop offset="1" stop-color="#fff"/></linearGradient><linearGradient id="linear-gradient-37" x1="-580.28" y1="105.04" x2="-577.71" y2="105.04" gradientTransform="matrix(-1, 0, 0, 1, -414.79, 0)" xlink:href="#linear-gradient-21"/><linearGradient id="linear-gradient-38" x1="-580.28" y1="103.48" x2="-575.17" y2="103.48" gradientTransform="matrix(-1, 0, 0, 1, -414.79, 0)" xlink:href="#linear-gradient-21"/><radialGradient id="radial-gradient-3" cx="-563.9" cy="7664.81" r="6.7" xlink:href="#radial-gradient-2"/><linearGradient id="linear-gradient-39" x1="204.78" y1="111.91" x2="215.06" y2="111.91" xlink:href="#linear-gradient-36"/><linearGradient id="linear-gradient-40" x1="-561.42" y1="111.95" x2="-557.16" y2="108.42" gradientTransform="matrix(-1, 0, 0, 1, -414.79, 0)" xlink:href="#linear-gradient-21"/><linearGradient id="linear-gradient-41" x1="-563.9" y1="109.39" x2="-558.76" y2="109.39" gradientTransform="matrix(-1, 0, 0, 1, -414.79, 0)" xlink:href="#linear-gradient-21"/><linearGradient id="linear-gradient-42" x1="-563.9" y1="111.2" x2="-560.26" y2="111.2" gradientTransform="matrix(-1, 0, 0, 1, -414.79, 0)" xlink:href="#linear-gradient-21"/><radialGradient id="radial-gradient-4" cx="146.13" cy="7550.48" r="6.86" gradientTransform="translate(0 -3852.14) scale(1 0.52)" gradientUnits="userSpaceOnUse"><stop offset="0" stop-color="#3c5185"/><stop offset="0.11" stop-color="#596b97"/><stop offset="0.41" stop-color="#a0aac3"/><stop offset="0.65" stop-color="#d3d8e4"/><stop offset="0.83" stop-color="#f3f4f8"/><stop offset="0.94" stop-color="#fff"/></radialGradient><linearGradient id="linear-gradient-43" x1="141.15" y1="41.05" x2="151.14" y2="41.05" gradientUnits="userSpaceOnUse"><stop offset="0.02" stop-color="#ffc107"/><stop offset="0.14" stop-color="#ffbc06"/><stop offset="1" stop-color="#ff9800"/></linearGradient><linearGradient id="linear-gradient-44" x1="137.93" y1="34.24" x2="154.41" y2="34.24" xlink:href="#linear-gradient-43"/></defs><title>Asset 2</title><g class="cls-1"><g id="Layer_2" data-name="Layer 2"><g id="Startup"><path class="cls-2" d="M168.83,95.75c0,42.45-41.91,72.36-84.35,72.36S2.62,138.2,2.62,95.75,43,13.9,85.48,13.9,168.83,53.31,168.83,95.75Z"/><path class="cls-3" d="M51,90,40.13,83.7a7.43,7.43,0,0,1-3.71-6.42V69.73h.75v7.55a6.66,6.66,0,0,0,3.33,5.77l10.85,6.27Z"/><path class="cls-3" d="M53,89,42.13,82.7a7.43,7.43,0,0,1-3.71-6.42V68.73h.75v7.55a6.66,6.66,0,0,0,3.33,5.77l10.85,6.27Z"/><path class="cls-4" d="M68.91,152.25a15.89,15.89,0,0,1,14.34,0c3.94,2.27,3.94,6,0,8.28a16,16,0,0,1-14.34,0C65,158.25,65,154.52,68.91,152.25Z"/><path class="cls-3" d="M85.87,152.94c0-.2-.29-.37-.65-.37h-1.4c-.23,0-.61.24-.67.17s-.06-.26.1-.36l1-.57c.25-.14-1.37-.08-1.63-.22l0-1.24a1.08,1.08,0,0,0-.93,0l-1,.58a.84.84,0,0,1-.59.06l-.43-.1c-.21,0-.34-.16-.34-.29v-.81c0-.21-.3-.38-.66-.38H76.4c-.36,0-.65.17-.65.38v.8c0,.14-.15.25-.37.3l-.4.1a.92.92,0,0,1-.62-.06l-1-.57a1,1,0,0,0-.92,0l-.12,1.34c-.25.15-1.74,0-1.49.12l1,.58c.16.09.21.22.12.34s-.45-.16-.68-.16H69.86c-.36,0-.65.17-.65.38v1.91c0,.21.3.38.66.38h.82l0,1.58v.08h0a.3.3,0,0,0,.19.23l1.61.93a1,1,0,0,0,.58.09h0a1,1,0,0,0,.34-.09l1-.58a.87.87,0,0,1,.6-.06l.43.09c.2,0,.34.17.34.29v.82c0,.2.3.37.66.37H78.7c.36,0,.65-.17.65-.38v-.8c0-.13.15-.25.36-.3l.39-.09a.92.92,0,0,1,.62.06l1,.57a1,1,0,0,0,.34.09v0h0a1,1,0,0,0,.57-.1l1.61-.93a.37.37,0,0,0,.18-.22h0v-.06l0-1.61h.8c.36,0,.66-.17.66-.38Zm-5.15,1.6c-.38,1.16-2.47,1.82-4.34,1.4-1.43-.32-2.3-1.2-2-2.07.38-1.16,2.46-1.81,4.34-1.39C80.13,152.79,81,153.68,80.72,154.54Z"/><path class="cls-3" d="M84.44,150.77v-1H83l-.32-.19a1,1,0,0,0-.93,0l-.33.19h-2V149c0-.21-.3-.38-.66-.38H76.4c-.36,0-.65.17-.65.38v.75H73.68l-.32-.18a1,1,0,0,0-.92,0l-.31.18H70.64v1a.34.34,0,0,0,.19.28l1,.57H83.25l1-.57a.35.35,0,0,0,.19-.24Z"/><path class="cls-5" d="M83.44,153.43h1.78c.36,0,.66-.17.66-.38v-1.31c0-.21-.29-.38-.65-.38h-1.4a.6.6,0,0,1-.51-.21c0-.07-.1-.15-.16-.22s-.06-.26.1-.36l1-.57a.28.28,0,0,0,0-.53l-1.61-.93a1.08,1.08,0,0,0-.93,0l-1,.58a.84.84,0,0,1-.59.06l-.43-.1c-.21,0-.34-.16-.34-.29V148c0-.21-.3-.38-.66-.38H76.4c-.36,0-.65.17-.65.38v.8c0,.14-.15.25-.37.3l-.4.1a.92.92,0,0,1-.62-.06l-1-.57a1,1,0,0,0-.92,0l-1.61.93c-.25.15-.25.39,0,.53l1,.58c.16.09.21.22.12.34l-.17.25a.62.62,0,0,1-.51.19H69.86c-.36,0-.65.17-.65.37v1.31c0,.21.3.38.66.38h1.4a.6.6,0,0,1,.51.21l.16.22c.1.12.07.26-.1.36l-1,.57c-.25.15-.25.38,0,.53l1.61.93a1.08,1.08,0,0,0,.93,0l1-.58a.87.87,0,0,1,.6-.07l.43.1c.2,0,.34.17.34.29v.82c0,.2.3.37.66.37H78.7c.36,0,.65-.17.65-.38V156c0-.13.15-.25.36-.3l.39-.09a.92.92,0,0,1,.62.06l1,.57a1.08,1.08,0,0,0,.93,0l1.61-.93c.25-.15.25-.39,0-.53l-1-.58c-.16-.09-.2-.22-.12-.34S83.43,153.44,83.44,153.43Zm-9.07-1.37c.38-1.16,2.46-1.81,4.34-1.4,1.42.32,2.29,1.21,2,2.07-.38,1.16-2.47,1.82-4.34,1.4C75,153.81,74.08,152.93,74.37,152.06Z"/><g class="cls-6"><path class="cls-7" d="M167.67,87.11l-.29-.59a2.79,2.79,0,0,0-.81-1c-.06-.06-.14-.11-.21-.17a.54.54,0,0,0-.12-.09l-.07,0c-.09,0-.16-.12-.25-.17l-50.75-29.3a7.41,7.41,0,0,0-6.71,0L11.75,111.62c-1.14.65-1.57,1.56-1.31,2.41l-.08,0v1.84a5.41,5.41,0,0,0,2.71,4.69l49.42,28.45a7.5,7.5,0,0,0,6.72,0l96.55-55.73A4.78,4.78,0,0,0,167.67,87.11Z"/><path class="cls-8" d="M167.32,87.07l-.29-.59a3,3,0,0,0-.81-1l-.2-.16-.12-.09-.08,0a2.71,2.71,0,0,0-.25-.17L115.1,55.91a7.41,7.41,0,0,0-6.68,0L12.06,111.56c-1.13.65-1.56,1.55-1.3,2.4l-.08.05v1.83a5.38,5.38,0,0,0,2.69,4.66l49.16,28.3a7.41,7.41,0,0,0,6.68,0l96.21-55.54A4.76,4.76,0,0,0,167.32,87.07Z"/><path class="cls-9" d="M167,87l-.28-.59a2.85,2.85,0,0,0-.81-1l-.2-.16a.54.54,0,0,0-.12-.09l-.07,0c-.09,0-.16-.12-.25-.17L115,56a7.41,7.41,0,0,0-6.65,0l-96,55.47a2.1,2.1,0,0,0-1.29,2.39l-.08,0v1.83a5.38,5.38,0,0,0,2.68,4.64l48.9,28.14a7.39,7.39,0,0,0,6.64,0l95.87-55.36A4.71,4.71,0,0,0,167,87Z"/><path class="cls-10" d="M166.61,87l-.28-.58a2.94,2.94,0,0,0-.8-1,1.66,1.66,0,0,0-.21-.16.87.87,0,0,0-.11-.09l-.08,0a2.07,2.07,0,0,0-.24-.17L115,56.16a7.33,7.33,0,0,0-6.61,0L12.67,111.44c-1.11.64-1.54,1.54-1.28,2.37l-.08,0v1.81A5.33,5.33,0,0,0,14,120.29l48.63,28a7.33,7.33,0,0,0,6.61,0l95.51-55.17A4.69,4.69,0,0,0,166.61,87Z"/><path class="cls-11" d="M166.26,87l-.29-.58a2.65,2.65,0,0,0-.79-.94,1.56,1.56,0,0,0-.2-.16l-.12-.1-.07,0a2.2,2.2,0,0,0-.25-.17L114.88,56.28a7.33,7.33,0,0,0-6.58,0L13,111.38c-1.11.64-1.53,1.53-1.28,2.36l-.08.05v1.8a5.32,5.32,0,0,0,2.66,4.59L62.65,148a7.31,7.31,0,0,0,6.57,0l95.17-55A4.68,4.68,0,0,0,166.26,87Z"/><path class="cls-12" d="M165.9,86.91l-.28-.58a2.74,2.74,0,0,0-.79-.94l-.2-.15-.11-.1-.08,0a2.07,2.07,0,0,0-.24-.17L114.8,56.41a7.22,7.22,0,0,0-6.53,0l-95,54.9c-1.11.64-1.52,1.53-1.27,2.36l-.08,0v1.8a5.27,5.27,0,0,0,2.64,4.56l48.11,27.69a7.22,7.22,0,0,0,6.53,0L164.05,93A4.64,4.64,0,0,0,165.9,86.91Z"/><path class="cls-13" d="M165.55,86.87l-.28-.58a2.79,2.79,0,0,0-.78-.93c-.06,0-.14-.1-.2-.16a.54.54,0,0,1-.12-.09l-.07,0c-.09-.06-.15-.12-.24-.17L114.73,56.54a7.16,7.16,0,0,0-6.5,0L13.6,111.25c-1.1.64-1.52,1.52-1.27,2.34l-.07,0v1.78A5.23,5.23,0,0,0,14.88,120L62.72,147.5a7.24,7.24,0,0,0,6.51,0L163.7,92.89A4.62,4.62,0,0,0,165.55,86.87Z"/><path class="cls-14" d="M165.2,86.83l-.28-.57a2.61,2.61,0,0,0-.78-.93l-.2-.16-.12-.09-.07,0a2.07,2.07,0,0,0-.24-.17L114.65,56.66a7.2,7.2,0,0,0-6.46,0L13.91,111.19c-1.1.63-1.51,1.51-1.26,2.33l-.08,0v1.78a5.22,5.22,0,0,0,2.61,4.51l47.58,27.39a7.16,7.16,0,0,0,6.47,0l94.13-54.42A4.6,4.6,0,0,0,165.2,86.83Z"/><path class="cls-15" d="M164.85,86.79l-.28-.57a2.66,2.66,0,0,0-.78-.92,1.56,1.56,0,0,0-.2-.16.87.87,0,0,0-.11-.09l-.07,0a2.07,2.07,0,0,0-.24-.17L114.58,56.79a7.14,7.14,0,0,0-6.43,0L14.21,111.13A2.06,2.06,0,0,0,13,113.45l-.07,0v1.77a5.2,5.2,0,0,0,2.59,4.49L62.8,147a7.14,7.14,0,0,0,6.43,0L163,92.74A4.57,4.57,0,0,0,164.85,86.79Z"/><path class="cls-16" d="M164.49,86.75l-.27-.57a2.63,2.63,0,0,0-.78-.91,1.46,1.46,0,0,0-.19-.16.54.54,0,0,0-.12-.09l-.07,0a2.07,2.07,0,0,0-.24-.17l-48.31-27.9a7.14,7.14,0,0,0-6.4,0L14.52,111.07c-1.08.63-1.49,1.49-1.24,2.3l-.08,0v1.75a5.18,5.18,0,0,0,2.58,4.47l47.06,27.08a7.08,7.08,0,0,0,6.4,0l93.44-54A4.55,4.55,0,0,0,164.49,86.75Z"/><path class="cls-17" d="M164.14,86.71l-.27-.57a2.81,2.81,0,0,0-.77-.91l-.2-.15a.87.87,0,0,0-.11-.09l-.07,0a2.07,2.07,0,0,0-.24-.17L114.43,57a7.05,7.05,0,0,0-6.36,0L14.83,111c-1.07.62-1.48,1.48-1.24,2.29l-.07,0v1.75a5.13,5.13,0,0,0,2.57,4.44l46.79,26.93a7.05,7.05,0,0,0,6.36,0l93.09-53.87A4.5,4.5,0,0,0,164.14,86.71Z"/><path class="cls-18" d="M163.79,86.66l-.28-.55a2.58,2.58,0,0,0-.76-.91l-.19-.15a.54.54,0,0,0-.12-.09l-.07,0a2,2,0,0,0-.23-.17L114.36,57.16a7.05,7.05,0,0,0-6.33,0L15.14,111c-1.07.62-1.47,1.47-1.23,2.28l-.08,0V115a5.1,5.1,0,0,0,2.56,4.41L62.92,146.2a7,7,0,0,0,6.32,0L162,92.52A4.5,4.5,0,0,0,163.79,86.66Z"/><path class="cls-19" d="M163.43,86.62l-.27-.55a2.63,2.63,0,0,0-.76-.9l-.19-.15a.87.87,0,0,0-.11-.09l-.07,0a2.07,2.07,0,0,0-.24-.17L114.28,57.29a7,7,0,0,0-6.28,0l-92.55,53.6c-1.06.61-1.47,1.46-1.23,2.26l-.07,0v1.72a5.07,5.07,0,0,0,2.54,4.39L63,145.94a7,7,0,0,0,6.28,0l92.41-53.49A4.47,4.47,0,0,0,163.43,86.62Z"/><path class="cls-20" d="M163.08,86.58l-.27-.55a2.48,2.48,0,0,0-.75-.89,1.56,1.56,0,0,0-.2-.16l-.11-.08-.07,0a2,2,0,0,0-.23-.17L114.21,57.42a6.89,6.89,0,0,0-6.25,0l-92.2,53.41c-1.06.61-1.46,1.46-1.22,2.25l-.07,0v1.72A5,5,0,0,0,17,119.2l46,26.48a6.89,6.89,0,0,0,6.25,0L161.3,92.37A4.44,4.44,0,0,0,163.08,86.58Z"/><path class="cls-21" d="M162.73,86.54l-.27-.55a2.66,2.66,0,0,0-.75-.89l-.19-.15a.87.87,0,0,1-.11-.09l-.07,0-.23-.16-47-27.12a6.93,6.93,0,0,0-6.21,0L16.06,110.77A2,2,0,0,0,14.85,113l-.07,0v1.71a5,5,0,0,0,2.51,4.33L63,145.42a6.86,6.86,0,0,0,6.21,0L161,92.3A4.42,4.42,0,0,0,162.73,86.54Z"/><path class="cls-22" d="M162.37,86.5l-.26-.54a2.48,2.48,0,0,0-.75-.89l-.19-.15a.87.87,0,0,1-.11-.09l-.07,0c-.08-.05-.14-.11-.23-.16l-46.7-27a6.86,6.86,0,0,0-6.18,0l-91.51,53c-1,.6-1.44,1.44-1.2,2.22l-.07,0v1.7A5,5,0,0,0,17.59,119l45.48,26.17a6.8,6.8,0,0,0,6.18,0l91.37-52.93A4.39,4.39,0,0,0,162.37,86.5Z"/><path class="cls-23" d="M162,86.46l-.26-.54A2.54,2.54,0,0,0,161,85l-.18-.15-.11-.09-.07,0c-.08-.05-.14-.11-.23-.16L114,57.79a6.86,6.86,0,0,0-6.15,0L16.68,110.65c-1,.6-1.43,1.43-1.19,2.21l-.08,0v1.69a5,5,0,0,0,2.48,4.29l45.22,26a6.86,6.86,0,0,0,6.15,0l91-52.76A4.37,4.37,0,0,0,162,86.46Z"/><path class="cls-24" d="M161.67,86.42l-.26-.54a2.59,2.59,0,0,0-.74-.87l-.19-.15-.11-.09-.07,0-.22-.16L113.91,57.92a6.78,6.78,0,0,0-6.11,0L17,110.59a1.94,1.94,0,0,0-1.19,2.2l-.07,0v1.67a4.94,4.94,0,0,0,2.46,4.27l45,25.88a6.78,6.78,0,0,0,6.11,0l90.67-52.57A4.35,4.35,0,0,0,161.67,86.42Z"/><path class="cls-25" d="M161.32,86.38l-.27-.54a2.54,2.54,0,0,0-.73-.87l-.19-.14s-.06-.07-.1-.09l-.07,0c-.08,0-.14-.11-.23-.16L113.84,58.05a6.72,6.72,0,0,0-6.08,0L17.3,110.53c-1,.59-1.42,1.41-1.18,2.18l-.08,0v1.67a4.89,4.89,0,0,0,2.46,4.24l44.69,25.73a6.76,6.76,0,0,0,6.07,0L159.59,92A4.33,4.33,0,0,0,161.32,86.38Z"/><path class="cls-26" d="M161,86.34l-.26-.53a2.45,2.45,0,0,0-.73-.87,1.24,1.24,0,0,0-.18-.14.87.87,0,0,0-.11-.09l-.07,0-.22-.16L113.76,58.17a6.67,6.67,0,0,0-6,0l-90.12,52.3c-1,.58-1.41,1.4-1.18,2.17l-.07,0v1.66a4.86,4.86,0,0,0,2.44,4.21l44.43,25.58a6.69,6.69,0,0,0,6,0l90-52.2A4.28,4.28,0,0,0,161,86.34Z"/><path class="cls-27" d="M160.61,86.3l-.26-.53a2.61,2.61,0,0,0-.72-.86l-.19-.15-.11-.08-.06,0c-.08,0-.14-.11-.23-.16L113.69,58.3a6.61,6.61,0,0,0-6,0L17.91,110.4c-1,.59-1.39,1.4-1.16,2.16l-.07,0v1.64a4.83,4.83,0,0,0,2.42,4.19l44.17,25.43a6.67,6.67,0,0,0,6,0l89.63-52A4.27,4.27,0,0,0,160.61,86.3Z"/><path class="cls-28" d="M160.26,86.26l-.26-.53a2.57,2.57,0,0,0-.72-.85l-.18-.15-.11-.08-.07,0-.22-.16-45.08-26a6.67,6.67,0,0,0-6,0L18.22,110.34c-1,.59-1.39,1.39-1.16,2.15l-.07,0v1.64a4.82,4.82,0,0,0,2.41,4.17l43.91,25.27a6.65,6.65,0,0,0,6,0l89.29-51.82A4.25,4.25,0,0,0,160.26,86.26Z"/><path class="cls-29" d="M159.9,86.22l-.25-.53a2.43,2.43,0,0,0-.72-.84l-.18-.15-.11-.08-.06,0-.22-.16L113.54,58.55a6.59,6.59,0,0,0-5.93,0L18.53,110.28c-1,.58-1.38,1.39-1.15,2.14l-.07,0v1.63a4.78,4.78,0,0,0,2.39,4.14l43.65,25.12a6.59,6.59,0,0,0,5.93,0l88.94-51.64A4.21,4.21,0,0,0,159.9,86.22Z"/><path class="cls-30" d="M159.55,86.18l-.25-.52a2.46,2.46,0,0,0-.72-.85c-.05,0-.12-.09-.18-.14a.87.87,0,0,0-.1-.08l-.07,0a2.09,2.09,0,0,0-.22-.16L113.47,58.67a6.59,6.59,0,0,0-5.9,0L18.84,110.22c-1,.58-1.37,1.38-1.15,2.12l-.07,0V114A4.76,4.76,0,0,0,20,118.12l43.39,25a6.57,6.57,0,0,0,5.89,0l88.6-51.45A4.19,4.19,0,0,0,159.55,86.18Z"/><path class="cls-31" d="M159.2,86.14l-.25-.52a2.51,2.51,0,0,0-.71-.84l-.18-.14-.11-.08-.06,0-.22-.16L113.39,58.8a6.5,6.5,0,0,0-5.86,0L19.15,110.16c-1,.57-1.37,1.37-1.14,2.11l-.07,0v1.61A4.72,4.72,0,0,0,20.3,118l43.12,24.82a6.5,6.5,0,0,0,5.86,0l88.25-51.27A4.16,4.16,0,0,0,159.2,86.14Z"/><path class="cls-32" d="M158.84,86.1l-.25-.52a2.43,2.43,0,0,0-.7-.83,1.24,1.24,0,0,0-.18-.14l-.1-.09-.07,0c-.07,0-.13-.11-.21-.16l-44-25.4a6.42,6.42,0,0,0-5.82,0l-88,51.17c-1,.57-1.36,1.36-1.14,2.1l-.07,0v1.6a4.68,4.68,0,0,0,2.36,4.06l42.85,24.67a6.5,6.5,0,0,0,5.83,0l87.9-51.08A4.13,4.13,0,0,0,158.84,86.1Z"/><path class="cls-33" d="M158.49,86.06l-.25-.52a2.31,2.31,0,0,0-.7-.82l-.17-.14-.11-.09-.06,0L157,84.3,113.24,59.05a6.4,6.4,0,0,0-5.78,0l-87.7,51c-1,.57-1.34,1.35-1.12,2.08l-.07,0v1.59a4.65,4.65,0,0,0,2.34,4L63.5,142.31a6.42,6.42,0,0,0,5.79,0l87.56-50.89A4.11,4.11,0,0,0,158.49,86.06Z"/><path class="cls-34" d="M158.14,86l-.25-.51a2.52,2.52,0,0,0-.69-.83l-.18-.14s-.06-.06-.1-.08l-.07,0c-.07-.05-.13-.11-.21-.16L113.17,59.18a6.33,6.33,0,0,0-5.75,0L20.07,110c-1,.56-1.34,1.34-1.12,2.07l-.06,0v1.58a4.63,4.63,0,0,0,2.32,4l42.33,24.36a6.4,6.4,0,0,0,5.75,0L156.5,91.34A4.08,4.08,0,0,0,158.14,86Z"/><path class="cls-35" d="M157.79,86l-.25-.51a2.48,2.48,0,0,0-.69-.82c0-.05-.12-.09-.18-.14a.87.87,0,0,0-.1-.08l-.06,0c-.08,0-.13-.1-.22-.15L113.1,59.3a6.4,6.4,0,0,0-5.72,0l-87,50.62c-1,.56-1.33,1.33-1.11,2.06l-.07,0v1.57a4.61,4.61,0,0,0,2.31,4l42.07,24.21a6.33,6.33,0,0,0,5.72,0l86.86-50.52A4.06,4.06,0,0,0,157.79,86Z"/><path class="cls-36" d="M157.43,85.93l-.24-.5a2.45,2.45,0,0,0-.69-.81l-.17-.14a.87.87,0,0,1-.1-.08l-.07,0-.21-.15L113,59.43a6.31,6.31,0,0,0-5.68,0L20.69,109.86a1.81,1.81,0,0,0-1.11,2l-.06,0v1.56a4.58,4.58,0,0,0,2.29,4l41.81,24.06a6.31,6.31,0,0,0,5.68,0L155.82,91.2A4,4,0,0,0,157.43,85.93Z"/><path class="cls-37" d="M157.08,85.89l-.24-.49a2.25,2.25,0,0,0-.69-.81l-.17-.14a.87.87,0,0,0-.1-.08l-.06,0-.21-.15L113,59.56a6.25,6.25,0,0,0-5.65,0L21,109.8c-1,.55-1.32,1.31-1.1,2l-.07,0v1.55a4.54,4.54,0,0,0,2.28,3.94l41.55,23.91a6.23,6.23,0,0,0,5.64,0l86.18-50.15A4,4,0,0,0,157.08,85.89Z"/><path class="cls-38" d="M156.73,85.85l-.24-.49a2.52,2.52,0,0,0-.68-.81l-.17-.13-.1-.08-.07,0a1.53,1.53,0,0,0-.21-.14L112.87,59.68a6.23,6.23,0,0,0-5.61,0L21.31,109.74c-.95.54-1.31,1.3-1.09,2l-.07,0v1.54a4.51,4.51,0,0,0,2.26,3.91L63.7,141a6.23,6.23,0,0,0,5.61,0l85.82-50A4,4,0,0,0,156.73,85.85Z"/><path class="cls-39" d="M156.37,85.81l-.24-.49a2.25,2.25,0,0,0-.67-.8l-.17-.13a.7.7,0,0,0-.1-.08l-.06,0a1.53,1.53,0,0,0-.21-.14L112.8,59.81a6.14,6.14,0,0,0-5.57,0L21.61,109.68a1.77,1.77,0,0,0-1.08,2l-.07,0v1.53a4.49,4.49,0,0,0,2.25,3.89l41,23.61a6.14,6.14,0,0,0,5.57,0L154.79,91A4,4,0,0,0,156.37,85.81Z"/><path class="cls-40" d="M156,85.77l-.24-.49a2.3,2.3,0,0,0-.67-.79,1.09,1.09,0,0,0-.17-.13.39.39,0,0,0-.1-.08l-.06,0a1.43,1.43,0,0,0-.2-.14L112.73,59.93a6.14,6.14,0,0,0-5.54,0L21.92,109.62c-.93.54-1.29,1.29-1.07,2l-.07,0v1.52A4.47,4.47,0,0,0,23,117l40.75,23.45a6.14,6.14,0,0,0,5.54,0L154.45,90.9A3.94,3.94,0,0,0,156,85.77Z"/><path class="cls-41" d="M155.67,85.73l-.24-.48a2.2,2.2,0,0,0-.66-.79l-.17-.14-.1-.07-.06,0a1.53,1.53,0,0,0-.21-.14l-41.58-24a6.12,6.12,0,0,0-5.5,0l-84.92,49.5a1.74,1.74,0,0,0-1.07,2l-.06,0v1.52a4.42,4.42,0,0,0,2.22,3.84l40.49,23.31a6.14,6.14,0,0,0,5.51,0l84.79-49.41A3.92,3.92,0,0,0,155.67,85.73Z"/><path class="cls-42" d="M155.32,85.69l-.24-.48a2.17,2.17,0,0,0-.66-.78l-.17-.14-.1-.07-.06,0a1.43,1.43,0,0,0-.2-.14L112.58,60.18a6.12,6.12,0,0,0-5.47,0L22.54,109.5c-.92.53-1.27,1.27-1.06,2l-.07,0V113a4.4,4.4,0,0,0,2.21,3.82L63.85,140a6.12,6.12,0,0,0,5.47,0l84.44-49.22A3.89,3.89,0,0,0,155.32,85.69Z"/><path class="cls-43" d="M155,85.65l-.23-.48a2.35,2.35,0,0,0-.66-.78l-.17-.13-.09-.08-.06,0-.2-.14L112.5,60.31a6,6,0,0,0-5.43,0L22.85,109.43c-.92.53-1.27,1.27-1.06,2l-.06,0v1.49a4.37,4.37,0,0,0,2.19,3.79l40,23a6,6,0,0,0,5.43,0l84.1-49A3.86,3.86,0,0,0,155,85.65Z"/><path class="cls-44" d="M154.61,85.61l-.23-.48a2.31,2.31,0,0,0-.65-.77l-.17-.13s-.06-.06-.1-.08l-.06,0a1.43,1.43,0,0,0-.2-.14L112.43,60.44a6,6,0,0,0-5.4,0L23.16,109.37c-.91.53-1.26,1.26-1.05,1.95l-.07,0v1.48a4.33,4.33,0,0,0,2.18,3.77l39.71,22.86a6,6,0,0,0,5.4,0l83.75-48.85A3.84,3.84,0,0,0,154.61,85.61Z"/><path class="cls-45" d="M154.26,85.57,154,85.1a2.31,2.31,0,0,0-.65-.77,1.09,1.09,0,0,0-.17-.13l-.09-.08-.06,0-.2-.14L112.35,60.56a6,6,0,0,0-5.36,0L23.46,109.31c-.9.53-1.24,1.25-1,1.93l-.06,0v1.47a4.3,4.3,0,0,0,2.16,3.74L64,139.2a6,6,0,0,0,5.36,0l83.4-48.67A3.8,3.8,0,0,0,154.26,85.57Z"/><path class="cls-46" d="M153.9,85.53l-.23-.47a2,2,0,0,0-.64-.76l-.16-.13a.7.7,0,0,0-.1-.08l-.06,0a1.43,1.43,0,0,0-.2-.14L112.28,60.69a5.87,5.87,0,0,0-5.32,0L23.77,109.25c-.9.52-1.24,1.24-1,1.92l-.06,0v1.46a4.27,4.27,0,0,0,2.14,3.71L64,138.94a5.93,5.93,0,0,0,5.32,0l83.06-48.48A3.78,3.78,0,0,0,153.9,85.53Z"/><path class="cls-47" d="M153.55,85.49l-.23-.47a2.12,2.12,0,0,0-.64-.76l-.16-.12-.09-.08-.06,0a1.43,1.43,0,0,0-.2-.14l-40-23.08a5.87,5.87,0,0,0-5.29,0L24.08,109.19c-.89.52-1.23,1.23-1,1.91l-.06,0v1.45a4.27,4.27,0,0,0,2.14,3.7l38.92,22.4a5.87,5.87,0,0,0,5.29,0l82.71-48.29A3.76,3.76,0,0,0,153.55,85.49Z"/><path class="cls-3" d="M153.2,85.45,153,85a2.16,2.16,0,0,0-.63-.75l-.17-.13a.71.71,0,0,0-.09-.07L152,84a1.33,1.33,0,0,0-.19-.14l-39.7-22.92a5.85,5.85,0,0,0-5.25,0L24.39,109.13a1.66,1.66,0,0,0-1,1.89l-.06,0v1.44a4.25,4.25,0,0,0,2.12,3.67l38.66,22.25a5.85,5.85,0,0,0,5.25,0l82.37-48.11A3.74,3.74,0,0,0,153.2,85.45Z"/></g><path class="cls-48" d="M14.09,111v-1.8l95.77-56.25c1.8-1,3.92-1.68,5.72-.64l50.28,28.87a2.75,2.75,0,0,1,1.1,1.19l.29.57A4.66,4.66,0,0,1,165.39,89l-94,54.26a7.31,7.31,0,0,1-6.54,0l-48.11-27.7A5.27,5.27,0,0,1,14.09,111Z"/><path class="cls-49" d="M15.44,110.57c-1.8-1-1.8-2.74,0-3.78L109.6,52.43a7.24,7.24,0,0,1,6.54,0L165.54,81c1.8,1,1.8,2.73,0,3.77L71.38,139.09a7.24,7.24,0,0,1-6.54,0Z"/><path class="cls-50" d="M17.52,110.43c-1.73-1-1.73-2.64,0-3.64l92.09-53.15a7,7,0,0,1,6.29,0l8.64,5.12a.84.84,0,0,1,.06,1.41l-1,.66a1,1,0,0,0,0,1.66L147.14,76a2.09,2.09,0,0,0,2,0l2-1.1a1.5,1.5,0,0,1,1.49,0l10.76,6.17c1.73,1,1.73,2.63,0,3.63L71.37,137.89a7,7,0,0,1-6.29,0Z"/><path class="cls-50" d="M141.84,70.71a.33.33,0,0,1-.14,0l-10.37-6a.29.29,0,0,1-.1-.4.27.27,0,0,1,.39-.1l10.37,6a.29.29,0,0,1,.1.4A.27.27,0,0,1,141.84,70.71Z"/><rect class="cls-51" x="60.8" y="26.7" width="4.17" height="80.29"/><rect class="cls-52" x="67.29" y="24.79" width="8.24" height="66.76"/><rect class="cls-53" x="100.62" y="24.79" width="6.81" height="74.2"/><rect class="cls-54" x="110.47" y="27.86" width="4.17" height="78.39"/><path class="cls-55" d="M94.8,94.41H83l0,5.76a2.94,2.94,0,0,0,1.72,2.42,9.34,9.34,0,0,0,8.37,0,2.93,2.93,0,0,0,1.73-2.42h0Z"/><path class="cls-55" d="M95,99.45l3.6-14.51A151.88,151.88,0,0,0,103,55.57c0-.66,0-1.3.08-1.94A95.61,95.61,0,0,0,92.89,7.41L89.18,0H88.6L84.89,7.41A95.61,95.61,0,0,0,74.72,53.63c0,.64,0,1.28.08,1.94a151.88,151.88,0,0,0,4.4,29.37l3.6,14.51Z"/><polygon class="cls-56" points="76.41 64.81 64.17 75.39 58.2 112.93 81.97 93.23 77.24 65.64 76.41 64.81"/><polygon class="cls-57" points="77.24 65.64 65 76.22 58.2 112.93 82.8 94.06 77.24 65.64"/><polygon class="cls-56" points="101.11 64.81 113.35 75.39 119.31 112.93 95.55 93.23 100.28 65.64 101.11 64.81"/><polygon class="cls-58" points="100.28 65.64 112.52 76.22 119.31 112.93 94.72 94.06 100.28 65.64"/><path class="cls-59" d="M97.61,18.49A98,98,0,0,0,92.89,7.41L89.18,0H88.6L84.89,7.41A98.16,98.16,0,0,0,80.17,18.5,32.68,32.68,0,0,0,97.61,18.49Z"/><path class="cls-5" d="M75.6,60.11l-.53-.34.18,2a29.11,29.11,0,0,0,13.61,3.12,29.42,29.42,0,0,0,13.67-3.13c.06-.68.13-1.35.18-2l-.56.35C94.81,64.32,82.9,64.33,75.6,60.11Z"/><path class="cls-5" d="M96.41,41.31a7.63,7.63,0,0,1-15,0,7.57,7.57,0,1,1,15,0Z"/><path class="cls-50" d="M95.16,41.14a6.36,6.36,0,0,1-12.54,0,6.31,6.31,0,1,1,12.54,0Z"/><path class="cls-60" d="M88.92,34.15,82.56,40.5c0,.21,0,.43.06.64a6,6,0,0,0,1.71,3.39l8.81-8.81A6.31,6.31,0,0,0,88.92,34.15Z"/><path class="cls-60" d="M94.65,37.73a6.36,6.36,0,0,0-.8-1.28L85.11,45.2a6.69,6.69,0,0,0,1.33.75Z"/><path class="cls-5" d="M96.1,95a5.75,5.75,0,0,1-1.67,1.38,13.15,13.15,0,0,1-11.88,0,7.36,7.36,0,0,1-.62-.4l.29,1.17a14.09,14.09,0,0,0,12.63,0,7,7,0,0,0,.87-.59Z"/><path class="cls-61" d="M114.4,35.78A55.19,55.19,0,0,0,100.67,32l.14.68A54,54,0,0,1,114,36.34c6.59,2.9,10.22,6.75,10.22,10.85S120.57,55.14,114,58c-13.82,6.09-36.25,6.09-50,0-6.55-2.9-10.16-6.75-10.16-10.85S57.43,39.24,64,36.34a52.71,52.71,0,0,1,12.81-3.61l.27-.7a54.29,54.29,0,0,0-13.5,3.75C56.74,38.8,53,42.85,53,47.19s3.76,8.39,10.58,11.41c7,3.1,16.19,4.64,25.39,4.64s18.42-1.54,25.45-4.64c6.86-3,10.64-7.07,10.64-11.41S121.26,38.8,114.4,35.78Z"/><path class="cls-62" d="M55.59,49.21a1.87,1.87,0,1,1-1.87-1.86A1.87,1.87,0,0,1,55.59,49.21Z"/><circle class="cls-63" cx="67.29" cy="59.66" r="1.4"/><path class="cls-64" d="M98.32,62.46a.91.91,0,1,1-.9-.9A.9.9,0,0,1,98.32,62.46Z"/><path class="cls-65" d="M109.48,25.41a44.53,44.53,0,0,0-11.13-3.06l.11.55a43.66,43.66,0,0,1,10.68,3c5.33,2.35,8.27,5.48,8.27,8.79s-2.94,6.45-8.27,8.8c-11.2,4.93-29.38,4.93-40.51,0C63.32,41.1,60.4,38,60.4,34.65s2.92-6.44,8.23-8.79A43.12,43.12,0,0,1,79,22.94l.22-.57a43.87,43.87,0,0,0-10.93,3c-5.53,2.45-8.58,5.73-8.58,9.24s3,6.8,8.58,9.25,13.11,3.76,20.57,3.76,14.92-1.25,20.62-3.76,8.62-5.73,8.62-9.25S115,27.86,109.48,25.41Z"/><circle class="cls-66" cx="70.86" cy="44.58" r="1.51"/><path class="cls-67" d="M99.46,46.78a1.14,1.14,0,1,1-1.14-1.13A1.14,1.14,0,0,1,99.46,46.78Z"/><path class="cls-68" d="M115.38,40.37a.74.74,0,1,1-.74-.74A.74.74,0,0,1,115.38,40.37Z"/><path class="cls-69" d="M117.59,77.94a.36.36,0,1,1-.71,0,.36.36,0,0,1,.71,0Z"/><path class="cls-69" d="M104,27.86a.36.36,0,1,1-.36-.35A.36.36,0,0,1,104,27.86Z"/><path class="cls-69" d="M120,47.7a.36.36,0,1,1-.35-.36A.36.36,0,0,1,120,47.7Z"/><path class="cls-69" d="M67.29,113.29a.36.36,0,1,1-.36-.36A.36.36,0,0,1,67.29,113.29Z"/><circle class="cls-69" cx="108.05" cy="64.81" r="0.36"/><path class="cls-69" d="M116.08,56.46a.36.36,0,1,1-.35-.35A.36.36,0,0,1,116.08,56.46Z"/><path class="cls-69" d="M104.38,108.6a.36.36,0,1,1-.35-.35A.36.36,0,0,1,104.38,108.6Z"/><path class="cls-69" d="M100.37,88.51a.36.36,0,1,1-.36-.35A.36.36,0,0,1,100.37,88.51Z"/><path class="cls-69" d="M108.05,46.44a.36.36,0,1,1-.35-.36A.36.36,0,0,1,108.05,46.44Z"/><circle class="cls-69" cx="73.8" cy="73.49" r="0.36"/><path class="cls-69" d="M108.77,29.92a.36.36,0,1,1-.36-.36A.36.36,0,0,1,108.77,29.92Z"/><path class="cls-69" d="M61.81,46.09a.36.36,0,1,1-.36-.36A.36.36,0,0,1,61.81,46.09Z"/><path class="cls-69" d="M65.35,99.45a.36.36,0,1,1-.35-.36A.36.36,0,0,1,65.35,99.45Z"/><path class="cls-69" d="M106.65,101.07a.36.36,0,1,1-.36-.36A.36.36,0,0,1,106.65,101.07Z"/><circle class="cls-69" cx="71.41" cy="39.34" r="0.36"/><path class="cls-69" d="M58.14,72.78a.36.36,0,1,1-.36-.36A.36.36,0,0,1,58.14,72.78Z"/><path class="cls-69" d="M75.43,26.7a.36.36,0,1,1-.71,0,.36.36,0,0,1,.71,0Z"/><circle class="cls-69" cx="70.5" cy="59.76" r="0.36"/><path class="cls-69" d="M106.86,90.21a.19.19,0,0,1-.19.19.2.2,0,0,1-.19-.19.19.19,0,0,1,.19-.19A.18.18,0,0,1,106.86,90.21Z"/><circle class="cls-69" cx="116.08" cy="107.37" r="0.19"/><path class="cls-69" d="M114.83,51.35a.18.18,0,0,1-.19.19.19.19,0,0,1-.19-.19.2.2,0,0,1,.19-.19A.19.19,0,0,1,114.83,51.35Z"/><path class="cls-69" d="M123.48,67.06a.19.19,0,0,1-.19.19.2.2,0,0,1-.19-.19.19.19,0,0,1,.19-.19A.18.18,0,0,1,123.48,67.06Z"/><path class="cls-69" d="M118,68.66a.2.2,0,0,1-.19.19.19.19,0,0,1-.19-.19.18.18,0,0,1,.19-.19A.19.19,0,0,1,118,68.66Z"/><path class="cls-69" d="M59.9,30.28a.19.19,0,0,1-.19.19.2.2,0,0,1-.19-.19.19.19,0,0,1,.19-.19A.18.18,0,0,1,59.9,30.28Z"/><path class="cls-69" d="M119.5,31.81a.19.19,0,1,1-.38,0,.19.19,0,0,1,.38,0Z"/><path class="cls-69" d="M68.74,29.92a.19.19,0,0,1-.2.19.19.19,0,0,1,0-.38A.19.19,0,0,1,68.74,29.92Z"/><path class="cls-69" d="M97.8,107.18a.19.19,0,0,1-.19.19.18.18,0,0,1-.19-.19.19.19,0,0,1,.19-.19A.2.2,0,0,1,97.8,107.18Z"/><path class="cls-69" d="M77.73,93.24a.2.2,0,0,1-.2.19.2.2,0,0,1-.19-.19.19.19,0,0,1,.19-.19A.19.19,0,0,1,77.73,93.24Z"/><path class="cls-69" d="M53.91,62.73a.18.18,0,0,1-.19.19.19.19,0,0,1-.19-.19.2.2,0,0,1,.19-.19A.19.19,0,0,1,53.91,62.73Z"/><path class="cls-69" d="M100.39,80.37a.18.18,0,0,1-.19.19.19.19,0,0,1-.19-.19.2.2,0,0,1,.19-.19A.19.19,0,0,1,100.39,80.37Z"/><path class="cls-69" d="M106.12,39.63a.18.18,0,0,1-.19.19.19.19,0,0,1-.19-.19.2.2,0,0,1,.19-.19A.19.19,0,0,1,106.12,39.63Z"/><circle class="cls-69" cx="68.74" cy="84.31" r="0.19"/><path class="cls-69" d="M67.12,32.92a.19.19,0,0,1-.19.19.2.2,0,0,1-.19-.19.19.19,0,0,1,.19-.19A.18.18,0,0,1,67.12,32.92Z"/><path class="cls-69" d="M106.67,51.35a.19.19,0,1,1-.38,0,.19.19,0,1,1,.38,0Z"/><path class="cls-69" d="M72,53.34a.2.2,0,0,1-.19.19.19.19,0,0,1-.19-.19.19.19,0,0,1,.19-.2A.2.2,0,0,1,72,53.34Z"/><path class="cls-69" d="M107.53,80.75a.19.19,0,0,1-.38,0,.19.19,0,0,1,.38,0Z"/><path class="cls-69" d="M63.82,91.67a.19.19,0,0,1-.19.19.18.18,0,0,1-.19-.19.19.19,0,0,1,.19-.19A.2.2,0,0,1,63.82,91.67Z"/><circle class="cls-69" cx="59.15" cy="83.19" r="0.19"/><path class="cls-69" d="M70.69,46.8a.19.19,0,0,1-.19.19.2.2,0,0,1-.19-.19.19.19,0,0,1,.19-.19A.18.18,0,0,1,70.69,46.8Z"/><path class="cls-69" d="M60.91,58.65a.19.19,0,0,1-.19.19.18.18,0,0,1-.19-.19.19.19,0,0,1,.19-.19A.2.2,0,0,1,60.91,58.65Z"/><circle class="cls-69" cx="109.24" cy="58.84" r="0.19"/><circle class="cls-69" cx="64.64" cy="67.39" r="0.19"/><path class="cls-69" d="M53.17,37.47a.19.19,0,0,1-.19.19.2.2,0,0,1-.19-.19.19.19,0,0,1,.19-.19A.18.18,0,0,1,53.17,37.47Z"/><path class="cls-69" d="M75.45,107a.18.18,0,0,1-.19.19.19.19,0,1,1,0-.38A.18.18,0,0,1,75.45,107Z"/><path class="cls-69" d="M117.78,89.28a.2.2,0,0,1-.19.2.19.19,0,0,1-.19-.2.19.19,0,0,1,.19-.19A.2.2,0,0,1,117.78,89.28Z"/><path class="cls-69" d="M81.29,105.5a.19.19,0,0,1-.19.19.2.2,0,0,1-.19-.19.19.19,0,0,1,.19-.19A.18.18,0,0,1,81.29,105.5Z"/><polygon class="cls-70" points="19.89 94.76 35.24 85.83 35.24 84.89 27.74 81.33 12.18 89.36 12.18 90.31 19.89 94.76"/><polygon class="cls-55" points="19.89 93.81 35.24 84.89 27.74 80.38 12.18 89.36 19.89 93.81"/><path class="cls-71" d="M16.47,90.76l0-18.84a4.07,4.07,0,0,1,1.82-3.17l8.83-5.17c1-.59,1.82-.12,1.82,1V84L17.48,91.21Z"/><path class="cls-72" d="M17.48,91.21V71.92a4.06,4.06,0,0,1,1.81-3.17l8.84-5.17c1-.59,1.82-.12,1.82,1V84Z"/><path class="cls-73" d="M19.29,68.75l8.84-5.17c1-.59,1.82-.12,1.82,1V79.88L17.48,87.1V71.92A4.06,4.06,0,0,1,19.29,68.75Z"/><path class="cls-74" d="M44.16,34h0a1.86,1.86,0,0,1,.62,1.4V67A4.07,4.07,0,0,1,43,70.14L2.88,93.35a2,2,0,0,1-1.78.14l-.29-.14A1.45,1.45,0,0,1,0,92V59.88a4,4,0,0,1,1.83-3.16l39.71-23A2.24,2.24,0,0,1,44.16,34Z"/><path class="cls-3" d="M43,34.21c1-.58,1.82-.1,1.82,1.06v31.8A4.05,4.05,0,0,1,43,70.23L2.88,93.37c-1,.58-1.83.1-1.83-1.05V60.51a4.06,4.06,0,0,1,1.83-3.16Z"/><polygon class="cls-3" points="43.16 36.93 43.16 61.01 2.95 84.02 2.95 59.73 43.16 36.93"/><path class="cls-55" d="M43,70.23,2.88,93.37c-1,.58-1.83.1-1.83-1.05V87.2L44.78,61.88v5.19A4.05,4.05,0,0,1,43,70.23Z"/><polygon class="cls-75" points="21.34 50.75 14.39 54.76 14.39 55.9 21.34 51.89 21.34 50.75"/><polygon class="cls-5" points="40.46 41.73 18.47 54.53 18.47 55.67 40.46 42.87 40.46 41.73"/><polygon class="cls-5" points="40.1 51.14 18.11 63.94 18.11 65.08 40.1 52.28 40.1 51.14"/><polygon class="cls-5" points="40.49 60.04 18.51 72.84 18.51 73.98 40.49 61.18 40.49 60.04"/><polygon class="cls-5" points="16.73 55.53 9.79 59.54 9.79 60.69 16.73 56.68 16.73 55.53"/><polygon class="cls-5" points="15.26 58.62 11.97 60.53 11.97 61.67 15.26 59.76 15.26 58.62"/><polygon class="cls-76" points="17.16 66.73 13.88 68.65 13.88 69.79 17.16 67.88 17.16 66.73"/><polygon class="cls-77" points="19.5 56.14 16.22 58.05 16.22 59.2 19.5 57.29 19.5 56.14"/><polygon class="cls-5" points="36.77 46.16 21.44 55 21.44 56.14 36.77 47.31 36.77 46.16"/><polygon class="cls-5" points="41.32 55.1 25.98 63.94 25.98 65.08 41.32 56.25 41.32 55.1"/><polygon class="cls-5" points="36.89 50.81 21.55 59.64 21.55 60.79 36.89 51.95 36.89 50.81"/><polygon class="cls-5" points="13.88 61.77 9.79 64.13 9.79 65.27 13.88 62.92 13.88 61.77"/><polygon class="cls-78" points="13.26 64.43 11.83 65.27 11.83 66.42 13.26 65.58 13.26 64.43"/><polygon class="cls-79" points="22.15 68.41 20.72 69.25 20.72 70.4 22.15 69.56 22.15 68.41"/><polygon class="cls-80" points="24.31 67.13 22.88 67.97 22.88 69.12 24.31 68.28 24.31 67.13"/><polygon class="cls-81" points="26.36 61.55 24.93 62.38 24.93 63.53 26.36 62.69 26.36 61.55"/><polygon class="cls-5" points="20.67 60.15 13.73 64.16 13.73 65.3 20.67 61.29 20.67 60.15"/><polygon class="cls-82" points="29.22 52.95 22.27 56.97 22.27 58.11 29.22 54.1 29.22 52.95"/><polygon class="cls-5" points="25.45 64.25 18.51 68.26 18.51 69.41 25.45 65.39 25.45 64.25"/><polygon class="cls-5" points="21.64 57.3 14.69 61.31 14.69 62.46 21.64 58.45 21.64 57.3"/><polygon class="cls-5" points="17.2 64.43 10.25 68.44 10.25 69.59 17.2 65.58 17.2 64.43"/><polygon class="cls-5" points="24.55 62.54 17.6 66.55 17.6 67.69 24.55 63.68 24.55 62.54"/><polygon class="cls-5" points="17.6 68.79 10.65 72.8 10.65 73.94 17.6 69.93 17.6 68.79"/><polygon class="cls-5" points="20.16 69.59 13.21 73.6 13.21 74.75 20.16 70.73 20.16 69.59"/><polygon class="cls-5" points="17.6 73.37 10.65 77.38 10.65 78.53 17.6 74.52 17.6 73.37"/><polygon class="cls-5" points="7.29 58.7 6.11 59.38 6.11 60.53 7.29 59.85 7.29 58.7"/><polygon class="cls-5" points="7.29 60.99 6.11 61.68 6.11 62.82 7.29 62.14 7.29 60.99"/><polygon class="cls-5" points="7.29 63.28 6.11 63.97 6.11 65.12 7.29 64.43 7.29 63.28"/><polygon class="cls-5" points="7.29 65.58 6.11 66.26 6.11 67.41 7.29 66.72 7.29 65.58"/><polygon class="cls-5" points="7.29 67.87 6.11 68.56 6.11 69.7 7.29 69.02 7.29 67.87"/><polygon class="cls-5" points="7.29 70.16 6.11 70.85 6.11 72 7.29 71.31 7.29 70.16"/><polygon class="cls-5" points="7.29 72.46 6.11 73.14 6.11 74.29 7.29 73.6 7.29 72.46"/><polygon class="cls-5" points="7.29 74.75 6.11 75.43 6.11 76.58 7.29 75.89 7.29 74.75"/><polygon class="cls-5" points="7.29 77.04 6.11 77.73 6.11 78.87 7.29 78.19 7.29 77.04"/><polygon class="cls-5" points="7.29 79.33 6.11 80.02 6.11 81.17 7.29 80.48 7.29 79.33"/><polygon class="cls-5" points="29.22 46.16 22.27 50.17 22.27 51.32 29.22 47.31 29.22 46.16"/><g class="cls-83"><path class="cls-84" d="M140.24,121.37c0-1-.71-1.4-1.57-.9l-34.41,19.86A3.48,3.48,0,0,0,102.7,143v12c0,1,.7,1.4,1.56.9L138.67,136a3.49,3.49,0,0,0,1.57-2.72Z"/><path class="cls-85" d="M140.24,121.38c0-1-.71-1.4-1.57-.91l-34.41,19.87a3.46,3.46,0,0,0-1.56,2.71V154.7c0,1,.7,1.4,1.56.9l34.41-19.86a3.49,3.49,0,0,0,1.57-2.72Z"/><path class="cls-86" d="M140.24,121.38c0-1-.71-1.4-1.57-.9l-34.41,19.86a3.48,3.48,0,0,0-1.56,2.72V154.4c0,1,.7,1.4,1.56.9l34.41-19.86a3.49,3.49,0,0,0,1.57-2.71Z"/><path class="cls-87" d="M140.24,121.39c0-1-.71-1.4-1.57-.9l-34.41,19.86a3.48,3.48,0,0,0-1.56,2.71v11c0,1,.7,1.4,1.56.91l34.41-19.87a3.49,3.49,0,0,0,1.57-2.71Z"/><path class="cls-88" d="M140.24,121.4c0-1-.71-1.41-1.57-.91l-34.41,19.87a3.46,3.46,0,0,0-1.56,2.71V153.8c0,1,.7,1.4,1.56.91l34.41-19.87a3.49,3.49,0,0,0,1.57-2.71Z"/><path class="cls-89" d="M140.24,121.4c0-1-.71-1.4-1.57-.9l-34.41,19.86a3.48,3.48,0,0,0-1.56,2.72V153.5c0,1,.7,1.4,1.56.91l34.41-19.87a3.47,3.47,0,0,0,1.57-2.71Z"/><path class="cls-90" d="M140.24,121.41c0-1-.71-1.4-1.57-.91l-34.41,19.87a3.48,3.48,0,0,0-1.56,2.71V153.2c0,1,.7,1.41,1.56.91l34.41-19.87a3.47,3.47,0,0,0,1.57-2.71Z"/><path class="cls-91" d="M140.24,121.42c0-1-.71-1.41-1.57-.91l-34.41,19.87a3.45,3.45,0,0,0-1.56,2.71v9.81c0,1,.7,1.41,1.56.91l34.41-19.87a3.46,3.46,0,0,0,1.57-2.71Z"/><path class="cls-92" d="M140.24,121.42c0-1-.71-1.4-1.57-.9l-34.41,19.86a3.48,3.48,0,0,0-1.56,2.72v9.51c0,1,.7,1.4,1.56.9l34.41-19.86a3.49,3.49,0,0,0,1.57-2.72Z"/><path class="cls-93" d="M140.24,121.43c0-1-.71-1.4-1.57-.91l-34.41,19.87a3.48,3.48,0,0,0-1.56,2.71v9.21c0,1,.7,1.4,1.56.9l34.41-19.86a3.49,3.49,0,0,0,1.57-2.72Z"/><path class="cls-94" d="M140.24,121.43c0-1-.71-1.4-1.57-.9l-34.41,19.86a3.48,3.48,0,0,0-1.56,2.72V152c0,1,.7,1.4,1.56.9l34.41-19.86a3.49,3.49,0,0,0,1.57-2.72Z"/><path class="cls-95" d="M140.24,121.44c0-1-.71-1.4-1.57-.9L104.26,140.4a3.48,3.48,0,0,0-1.56,2.71v8.6c0,1,.7,1.4,1.56.9l34.41-19.86a3.49,3.49,0,0,0,1.57-2.72Z"/><path class="cls-96" d="M140.24,121.45c0-1-.71-1.4-1.57-.91l-34.41,19.87a3.46,3.46,0,0,0-1.56,2.71v8.29c0,1,.7,1.4,1.56.9l34.41-19.86a3.49,3.49,0,0,0,1.57-2.71Z"/><path class="cls-97" d="M140.24,121.45c0-1-.71-1.4-1.57-.9l-34.41,19.86a3.48,3.48,0,0,0-1.56,2.72v8c0,1,.7,1.4,1.56.9l34.41-19.86a3.49,3.49,0,0,0,1.57-2.71Z"/><path class="cls-98" d="M140.24,121.46c0-1-.71-1.4-1.57-.9l-34.41,19.86a3.48,3.48,0,0,0-1.56,2.71v7.68c0,1,.7,1.4,1.56.91l34.41-19.87a3.49,3.49,0,0,0,1.57-2.71Z"/><path class="cls-99" d="M140.24,121.47c0-1-.71-1.41-1.57-.91l-34.41,19.87a3.46,3.46,0,0,0-1.56,2.71v7.37c0,1,.7,1.4,1.56.91l34.41-19.87a3.49,3.49,0,0,0,1.57-2.71Z"/><path class="cls-100" d="M140.24,121.47c0-1-.71-1.4-1.57-.9l-34.41,19.86a3.48,3.48,0,0,0-1.56,2.72v7.06c0,1,.7,1.41,1.56.91l34.41-19.87a3.47,3.47,0,0,0,1.57-2.71Z"/><path class="cls-101" d="M140.24,121.48c0-1-.71-1.4-1.57-.91l-34.41,19.87a3.48,3.48,0,0,0-1.56,2.71v6.76c0,1,.7,1.41,1.56.91L138.67,131a3.46,3.46,0,0,0,1.57-2.71Z"/><path class="cls-102" d="M140.24,121.49c0-1-.71-1.41-1.57-.91l-34.41,19.87a3.45,3.45,0,0,0-1.56,2.71v6.46c0,1,.7,1.4,1.56.9l34.41-19.86a3.49,3.49,0,0,0,1.57-2.72Z"/><path class="cls-103" d="M140.24,121.49c0-1-.71-1.4-1.57-.9l-34.41,19.86a3.48,3.48,0,0,0-1.56,2.72v6.15c0,1,.7,1.4,1.56.9l34.41-19.86a3.49,3.49,0,0,0,1.57-2.72Z"/><path class="cls-104" d="M140.24,121.5c0-1-.71-1.4-1.57-.91l-34.41,19.87a3.48,3.48,0,0,0-1.56,2.71V149c0,1,.7,1.4,1.56.9l34.41-19.86a3.49,3.49,0,0,0,1.57-2.72Z"/><path class="cls-105" d="M140.24,121.5c0-1-.71-1.4-1.57-.9l-34.41,19.86a3.48,3.48,0,0,0-1.56,2.72v5.54c0,1,.7,1.4,1.56.9l34.41-19.86a3.49,3.49,0,0,0,1.57-2.72Z"/><path class="cls-106" d="M140.24,121.51c0-1-.71-1.4-1.57-.9l-34.41,19.86a3.48,3.48,0,0,0-1.56,2.71v5.24c0,1,.7,1.4,1.56.9l34.41-19.86a3.49,3.49,0,0,0,1.57-2.71Z"/><path class="cls-107" d="M140.24,121.52c0-1-.71-1.4-1.57-.91l-34.41,19.87a3.46,3.46,0,0,0-1.56,2.71v4.93c0,1,.7,1.4,1.56.9l34.41-19.86a3.49,3.49,0,0,0,1.57-2.71Z"/><path class="cls-108" d="M140.24,121.52c0-1-.71-1.4-1.57-.9l-34.41,19.86a3.48,3.48,0,0,0-1.56,2.72v4.62c0,1,.7,1.4,1.56.91l34.41-19.87a3.49,3.49,0,0,0,1.57-2.71Z"/><path class="cls-109" d="M140.24,121.53c0-1-.71-1.4-1.57-.9l-34.41,19.86a3.48,3.48,0,0,0-1.56,2.71v4.32c0,1,.7,1.4,1.56.91l34.41-19.87a3.49,3.49,0,0,0,1.57-2.71Z"/><path class="cls-110" d="M140.24,121.54c0-1-.71-1.41-1.57-.91L104.26,140.5a3.46,3.46,0,0,0-1.56,2.71v4c0,1,.7,1.4,1.56.91l34.41-19.87a3.47,3.47,0,0,0,1.57-2.71Z"/><path class="cls-111" d="M140.24,121.54c0-1-.71-1.4-1.57-.9L104.26,140.5a3.48,3.48,0,0,0-1.56,2.72v3.7c0,1,.7,1.41,1.56.91L138.67,128a3.47,3.47,0,0,0,1.57-2.71Z"/><path class="cls-112" d="M140.24,121.55c0-1-.71-1.4-1.57-.91l-34.41,19.87a3.48,3.48,0,0,0-1.56,2.71v3.4c0,1,.7,1.41,1.56.91l34.41-19.87a3.46,3.46,0,0,0,1.57-2.71Z"/><path class="cls-113" d="M140.24,121.56c0-1-.71-1.41-1.57-.91l-34.41,19.87a3.45,3.45,0,0,0-1.56,2.71v3.1c0,1,.7,1.4,1.56.9l34.41-19.86a3.49,3.49,0,0,0,1.57-2.72Z"/><path class="cls-114" d="M140.24,121.56c0-1-.71-1.4-1.57-.9l-34.41,19.86a3.48,3.48,0,0,0-1.56,2.72V146c0,1,.7,1.4,1.56.9l34.41-19.86a3.49,3.49,0,0,0,1.57-2.72Z"/><path class="cls-115" d="M140.24,121.57c0-1-.71-1.4-1.57-.91l-34.41,19.87a3.48,3.48,0,0,0-1.56,2.71v2.49c0,1,.7,1.4,1.56.9l34.41-19.86a3.49,3.49,0,0,0,1.57-2.72Z"/><path class="cls-116" d="M140.24,121.57c0-1-.71-1.4-1.57-.9l-34.41,19.86a3.48,3.48,0,0,0-1.56,2.72v2.18c0,1,.7,1.4,1.56.9l34.41-19.86a3.49,3.49,0,0,0,1.57-2.72Z"/><path class="cls-117" d="M140.24,121.58c0-1-.71-1.4-1.57-.9l-34.41,19.86a3.48,3.48,0,0,0-1.56,2.71v1.88c0,1,.7,1.4,1.56.9l34.41-19.86a3.49,3.49,0,0,0,1.57-2.71Z"/><path class="cls-118" d="M140.24,121.59c0-1-.71-1.4-1.57-.91l-34.41,19.87a3.46,3.46,0,0,0-1.56,2.71v1.57c0,1,.7,1.4,1.56.91l34.41-19.87a3.49,3.49,0,0,0,1.57-2.71Z"/><path class="cls-119" d="M140.24,121.59c0-1-.71-1.4-1.57-.9l-34.41,19.86a3.48,3.48,0,0,0-1.56,2.72v1.26c0,1,.7,1.4,1.56.91l34.41-19.87a3.49,3.49,0,0,0,1.57-2.71Z"/><path class="cls-120" d="M140.24,121.6c0-1-.71-1.4-1.57-.9l-34.41,19.86a3.48,3.48,0,0,0-1.56,2.71v1c0,1,.7,1.4,1.56.91l34.41-19.87a3.49,3.49,0,0,0,1.57-2.71Z"/><path class="cls-121" d="M140.24,121.61c0-1-.71-1.41-1.57-.91l-34.41,19.87a3.46,3.46,0,0,0-1.56,2.71v.65c0,1,.7,1.41,1.56.91L138.67,125a3.47,3.47,0,0,0,1.57-2.71Z"/><path class="cls-122" d="M140.24,121.61c0-1-.71-1.4-1.57-.9l-34.41,19.86a3.48,3.48,0,0,0-1.56,2.72v.34c0,1,.7,1.41,1.56.91l34.41-19.87a3.46,3.46,0,0,0,1.57-2.71Z"/><path class="cls-123" d="M140.24,121.62c0-1-.71-1.4-1.57-.91l-34.41,19.87a3.48,3.48,0,0,0-1.56,2.71v.05c0,1,.7,1.4,1.56.9l34.41-19.86a3.49,3.49,0,0,0,1.57-2.72Z"/><path class="cls-124" d="M140.24,121.63c0-1-.71-1.41-1.57-.91l-34.41,19.87a3.45,3.45,0,0,0-1.56,2.71V143c0,1,.7,1.4,1.56.9l34.41-19.86a3.49,3.49,0,0,0,1.57-2.72Z"/><path class="cls-3" d="M140.24,121.63c0-1-.71-1.4-1.57-.9l-34.41,19.86a3.48,3.48,0,0,0-1.56,2.72v-.57c0,1,.7,1.4,1.56.9l34.41-19.86a3.49,3.49,0,0,0,1.57-2.72Z"/></g><path class="cls-3" d="M140.24,88.68c0-1-.71-1.4-1.57-.91l-34.41,19.87a3.46,3.46,0,0,0-1.56,2.71V137.7c0,1,.7,1.4,1.56.9l34.41-19.86a3.49,3.49,0,0,0,1.57-2.72Z"/><path class="cls-55" d="M138.05,93.24c0-.85-.6-1.2-1.34-.77l-29.22,17a3,3,0,0,0-1.33,2.32v21.89c0,.85.6,1.2,1.33.78l29.22-17a3,3,0,0,0,1.34-2.32Z"/><path class="cls-125" d="M104,138.42V111.08a3.49,3.49,0,0,1,1.57-2.72L139.94,88.5a1.11,1.11,0,0,1,.27-.13c-.14-.77-.78-1-1.54-.6l-34.41,19.87a3.46,3.46,0,0,0-1.56,2.71V137.7c0,.88.56,1.3,1.29,1A1.55,1.55,0,0,1,104,138.42Z"/><polygon class="cls-60" points="107.5 112.08 121.47 104.02 121.47 114.43 107.5 122.5 107.5 112.08"/><polygon class="cls-126" points="107.5 124.61 137.17 107.44 137.17 108.97 107.5 126.14 107.5 124.61"/><polygon class="cls-126" points="107.5 127.66 137.17 110.49 137.17 112.02 107.5 129.19 107.5 127.66"/><polygon class="cls-126" points="107.5 130.72 124.5 120.86 124.5 122.39 107.5 132.25 107.5 130.72"/><polygon class="cls-126" points="122.64 105.51 137.17 97.09 137.17 102.05 122.64 110.47 122.64 105.51"/><path class="cls-3" d="M34.91,143.61l-.61-.17a3.37,3.37,0,0,0-2.9.5l-.63-.47L30.12,145,27,144.69l.68,2.78a.52.52,0,0,0,.35.37l1.29.37a3.1,3.1,0,0,0,3-.73l2.84-2.71A.69.69,0,0,0,34.91,143.61Z"/><path class="cls-127" d="M34.91,143.61l-.61-.17a3.37,3.37,0,0,0-2.9.5l-.63-.47L30.12,145,27,144.69l.35,1.44a1.84,1.84,0,0,0,1.27,1.33l.55.16a3.09,3.09,0,0,0,3-.73l2.85-2.71a.71.71,0,0,0,.19-.35A.65.65,0,0,0,34.91,143.61Z"/><path class="cls-128" d="M30.52,144.66c.65-.63.48-1.34-.39-1.59a3.14,3.14,0,0,0-2.76.68c-.65.62-.48,1.33.39,1.59A3.18,3.18,0,0,0,30.52,144.66Z"/><path class="cls-129" d="M28.81,144.75a1,1,0,0,1-1-1v-4a1,1,0,0,1,2.07,0v4A1,1,0,0,1,28.81,144.75Z"/><path class="cls-130" d="M28.81,144.11h-.08a1.61,1.61,0,0,1-1.54-1.69l.44-9.72-.44-15.56a1.61,1.61,0,0,1,1.57-1.66c.89,0,2.65.68,2.68,1.57l-.57,15.68v.06l-.45,9.78A1.62,1.62,0,0,1,28.81,144.11Z"/><path class="cls-3" d="M39.24,147.58l-.55-.32a3.38,3.38,0,0,0-2.94-.2l-.5-.61-1,1.29-3-1v2.86a.51.51,0,0,0,.26.44l1.16.67a3.11,3.11,0,0,0,3.12,0l3.41-1.95A.69.69,0,0,0,39.24,147.58Z"/><path class="cls-127" d="M39.24,147.58l-.55-.32a3.38,3.38,0,0,0-2.94-.2l-.5-.61-1,1.29-3-1v1.48a1.85,1.85,0,0,0,.92,1.6l.5.29a3.13,3.13,0,0,0,3.12,0l3.41-2a.75.75,0,0,0,.27-.29A.69.69,0,0,0,39.24,147.58Z"/><path class="cls-128" d="M34.72,147.55a.86.86,0,0,0,0-1.64,3.16,3.16,0,0,0-2.84,0,.87.87,0,0,0,0,1.64A3.16,3.16,0,0,0,34.72,147.55Z"/><path class="cls-129" d="M33.3,147.38a1,1,0,0,1-1-1v-4a1,1,0,0,1,2.06,0v4A1,1,0,0,1,33.3,147.38Z"/><path class="cls-127" d="M28.81,119.8a1.18,1.18,0,0,1-1-.59l-2.14-3.69A8.86,8.86,0,0,1,28,104.08l.58-.44A1.18,1.18,0,1,1,30,105.51l-.58.44a6.49,6.49,0,0,0-1.69,8.39L29.83,118a1.18,1.18,0,0,1-.44,1.61A1.21,1.21,0,0,1,28.81,119.8Z"/><path class="cls-131" d="M27.3,121.17l-.11-4,6.47-2.49,0,3.57a1.61,1.61,0,0,1,1.3,1.48l.89,14.16-.89,10.89a1.6,1.6,0,0,1-2.13,1.4,1.65,1.65,0,0,1-1.09-1.72l.87-10.6-1.5-9.58-2.91-1.66A1.68,1.68,0,0,1,27.3,121.17Z"/><path class="cls-132" d="M34.91,119.69a1.61,1.61,0,0,0-1.72-1.51h-.11a1.62,1.62,0,0,1,1.4,1.5l.89,14.16-.89,10.89a1.62,1.62,0,0,1-1.4,1.47h.22a1.62,1.62,0,0,0,1.61-1.49l.89-10.89Z"/><path class="cls-133" d="M26.61,117.18l.16-1.55a21.54,21.54,0,0,0,.2-3.21,6.58,6.58,0,0,0,.72,1.92L29.83,118a1.18,1.18,0,0,1-.44,1.61,1.21,1.21,0,0,1-.58.16,1.18,1.18,0,0,1-1-.59Z"/><path class="cls-127" d="M26.87,97.9,32,100.84a7.29,7.29,0,0,1,3.64,6.31v14.48c-2.06,1.44-7.62-.57-8.73-2.83l.34-3.17a22,22,0,0,0,.18-3.8Z"/><path class="cls-134" d="M28.85,94.18h6a0,0,0,0,1,0,0v1a6,6,0,0,1-6,6h0a0,0,0,0,1,0,0V94.18A0,0,0,0,1,28.85,94.18Z"/><path class="cls-134" d="M29.6,97.23h2.5a0,0,0,0,1,0,0V101a1.25,1.25,0,0,1-1.25,1.25h0A1.25,1.25,0,0,1,29.6,101V97.23A0,0,0,0,1,29.6,97.23Z"/><path class="cls-133" d="M35.6,110.32a1,1,0,0,1-.66-.86l-.47-3.67a1.19,1.19,0,0,0-1.32-1c-.65.08-.68.76-.6,1.4l.05,3.59A3.39,3.39,0,0,0,35,112.6a3.22,3.22,0,0,0,.6.13Z"/><path class="cls-127" d="M36,112.11a3.6,3.6,0,0,1-1-.15,3.41,3.41,0,0,1-2.4-2.84l-.47-3.68a1.18,1.18,0,1,1,2.34-.3l.47,3.68a1,1,0,0,0,.75.88,1.05,1.05,0,0,0,1.12-.31l3.41-3.88a1.17,1.17,0,0,1,1.66-.11,1.19,1.19,0,0,1,.11,1.67l-3.41,3.87A3.39,3.39,0,0,1,36,112.11Z"/><path class="cls-134" d="M39.65,106.15l.57-.64a1.17,1.17,0,0,1,1.66-.11,1.19,1.19,0,0,1,.11,1.67l-.69.77Z"/><path class="cls-134" d="M43.09,105.93a1.43,1.43,0,1,1-1.42-1.42A1.43,1.43,0,0,1,43.09,105.93Z"/><path class="cls-134" d="M42.89,103.47l-1.8,1.88a.3.3,0,0,1-.44,0h0a.31.31,0,0,1,0-.44L42.43,103a.33.33,0,0,1,.45,0h0A.31.31,0,0,1,42.89,103.47Z"/><path class="cls-3" d="M35.27,93c-1-1.22-3.46-.86-4.8-.43-1.65.53-3.72,1.15-4,3.15a11.14,11.14,0,0,0,0,1.53,7.59,7.59,0,0,1-.79,3.41c-.75,1.51-1.11,2.47-.32,4,.47.92.78,2.37,1.74,2.94s3.08,1,4,.23c1.32-1,2-3.42,1.87-5s-1-3.38-.47-5c.32-1,1.68-2.14,2.44-2.84S36,93.78,35.27,93Z"/><path class="cls-135" d="M35.27,93a3.3,3.3,0,0,0-2.76-.81,2.81,2.81,0,0,1,2,.81c.68.82.34,1.44-.34,2.07s-2.12,1.83-2.44,2.84c-.51,1.6.33,3.3.46,5s-.54,4-1.86,5a2.21,2.21,0,0,1-1.19.37,2.87,2.87,0,0,0,1.94-.37c1.32-1,2-3.42,1.87-5s-1-3.38-.47-5c.32-1,1.68-2.14,2.44-2.84S36,93.78,35.27,93Z"/><path class="cls-3" d="M91.32,141.34a2.93,2.93,0,0,1-2.91-2.92V136a2,2,0,0,0-1-1.75L85.21,133a.37.37,0,1,1,.37-.65l2.2,1.28a2.8,2.8,0,0,1,1.38,2.4v2.38a2.13,2.13,0,0,0,1.08,1.87,2.09,2.09,0,0,0,2.16,0l3.87-2.23a3.08,3.08,0,0,0,1.53-2.65v-14a3,3,0,0,1,1.53-2.63l3.74-2.14a.36.36,0,0,1,.51.13.39.39,0,0,1-.14.52l-3.74,2.14a2.3,2.3,0,0,0-1.15,2v14a3.83,3.83,0,0,1-1.9,3.3l-3.88,2.23A2.81,2.81,0,0,1,91.32,141.34Z"/><path class="cls-134" d="M118.39,119h0a.39.39,0,0,1-.55,0l-.76-.73a.39.39,0,0,1,0-.55h0a.39.39,0,0,1,.54,0l.77.74A.39.39,0,0,1,118.39,119Z"/><path class="cls-3" d="M129.07,155.54l-1.32-.77v-.59l-1.36-.2-3.09-1.79a1,1,0,0,1,.17-1.89h0a2.37,2.37,0,0,1,1.81.09l2.37,1.16,3.29,1.21-.07,1.2a1.68,1.68,0,0,1-1.68,1.58Z"/><path class="cls-136" d="M129.58,155.16h-.13l-1.31-.77v-.59l-1.37-.2-3.09-1.79a1,1,0,0,1-.37-1.42,1,1,0,0,0,0,1.8l3.09,1.79,1.36.2v.59l1.32.77h.12a1.66,1.66,0,0,0,1.37-.71A1.65,1.65,0,0,1,129.58,155.16Z"/><path class="cls-3" d="M134.1,152.1l-1.31-.77v-.59l-1.37-.2-3.08-1.79a1,1,0,0,1,.16-1.89h0a2.32,2.32,0,0,1,1.81.09l2.37,1.16,3.29,1.2-.06,1.2a1.69,1.69,0,0,1-1.68,1.59Z"/><path class="cls-136" d="M134.61,151.71h-.12l-1.32-.77v-.59l-1.36-.2-3.09-1.78a1,1,0,0,1-.38-1.42,1,1,0,0,0,0,1.8l3.08,1.79,1.37.2v.59l1.31.77h.13a1.69,1.69,0,0,0,1.37-.71A1.7,1.7,0,0,1,134.61,151.71Z"/><path class="cls-137" d="M134.24,150.53c-1,0-1.72-.39-1.72-1.35l-1-25.6c0-1,1.73-1.73,2.68-1.73a1.73,1.73,0,0,1,1.73,1.73v25.6C136,150.14,135.2,150.53,134.24,150.53Z"/><path class="cls-138" d="M129.33,153.47c-.89,0-1.65-.11-1.72-1l-1-15v-.13l1-14a1.71,1.71,0,0,1,1.84-1.6c1,.06,4.07.91,4,1.86l-2.9,13.9.5,14.7c.08.95-.63,1.21-1.58,1.29Z"/><path class="cls-134" d="M121.31,121c-.25,0-.49,0-.74,0l-4.16-.21a1.15,1.15,0,1,1,.11-2.3l4.19.21a7.64,7.64,0,0,0,7.63-4.66l.79-1.88a1.15,1.15,0,0,1,1.51-.62,1.17,1.17,0,0,1,.62,1.51l-.79,1.88A9.93,9.93,0,0,1,121.31,121Z"/><path class="cls-139" d="M136.13,109.75c-.24-1.64-1.77-2.71-3.22-1.93l-.47.29a10.08,10.08,0,0,0-4.87,6.92,7.43,7.43,0,0,1-6.82,3.42l-1.58-.12a1.36,1.36,0,0,0-1.44,1.25A1.34,1.34,0,0,0,119,121l1.59.12q.38,0,.75,0a10.07,10.07,0,0,0,6-2l0,2-.57,21.27c.31.21,2.29,0,4.35-.5.18,0,.36-2.36.54-2.41s.35,2.18.52,2.13c1.82-.52,3.5-1.23,3.9-2l-.29-22.71A31.67,31.67,0,0,0,136.13,109.75Z"/><path class="cls-140" d="M130.64,114.94a10,10,0,0,1-3.3,4.21l0,1a10.11,10.11,0,0,0,3.13-4.71l.2-.62Z"/><path class="cls-134" d="M132.61,110.11h0a.85.85,0,0,1-.85-.84v-3.91h1.69v3.91A.85.85,0,0,1,132.61,110.11Z"/><path class="cls-134" d="M129.5,101.14h5.11a0,0,0,0,1,0,0v7.3a0,0,0,0,1,0,0h-1.28a3.83,3.83,0,0,1-3.83-3.83v-3.46A0,0,0,0,1,129.5,101.14Z"/><path class="cls-3" d="M136.27,104.89c0-.19,0-.38,0-.57a13.58,13.58,0,0,0,0-2.21,2.88,2.88,0,0,0-1.45-2.25,4,4,0,0,0-1.65-.23l-3.4,0a2.57,2.57,0,0,0-1.47.3c-.8.55-.41,1.58.08,2.2a2.71,2.71,0,0,0,1,.82c.37.18,1,0,1.24.41s-.3,2.15.42,2.35c.56.16.48-.42.57-.74a.52.52,0,0,1,.42-.41c.26,0,.43.27.48.53a4.81,4.81,0,0,1-.12,1.55,1.63,1.63,0,0,0,.38,1.44,1.67,1.67,0,0,0,.49.27c.51.18,1.45.41,1.93,0a2.65,2.65,0,0,0,1.18-2A13.91,13.91,0,0,0,136.27,104.89Z"/><path class="cls-141" d="M165.34,102.55a11.21,11.21,0,0,0-10.12,0c-2.78,1.6-2.78,4.23,0,5.84a11.21,11.21,0,0,0,10.12,0C168.13,106.78,168.13,104.15,165.34,102.55Z"/><path class="cls-142" d="M155.26,103.89h.57a3.9,3.9,0,0,1,.92-.73,8,8,0,0,1,7.25,0,3.9,3.9,0,0,1,.92.73h.57v1.35h0a2.54,2.54,0,0,1-1.49,2.11,8,8,0,0,1-7.25,0,2.56,2.56,0,0,1-1.49-2.11h0Z"/><path class="cls-143" d="M164,103.16a3.9,3.9,0,0,1,.92.73h.57v1.35h0a2.54,2.54,0,0,1-1.49,2.11l-.1.05V106l-1-3.34A5.87,5.87,0,0,1,164,103.16Z"/><path class="cls-55" d="M164,101.8a8,8,0,0,0-7.25,0c-2,1.15-2,3,0,4.18a8,8,0,0,0,7.25,0C166,104.83,166,103,164,101.8Z"/><path class="cls-144" d="M160.38,100.94a7.37,7.37,0,0,1,3.62.86c2,1.15,2,3,0,4.18l-.1,0-3.52-1.68Z"/><path class="cls-145" d="M153.8,109.77a10.4,10.4,0,0,0-9.38,0c-2.58,1.49-2.58,3.92,0,5.41a10.4,10.4,0,0,0,9.38,0C156.38,113.69,156.38,111.26,153.8,109.77Z"/><path class="cls-146" d="M144,110.54h.58a3.49,3.49,0,0,1,.92-.73,8,8,0,0,1,7.28,0,3.49,3.49,0,0,1,.92.73h.58v1.36h0a2.57,2.57,0,0,1-1.5,2.11,8.11,8.11,0,0,1-7.28,0,2.57,2.57,0,0,1-1.5-2.11h0Z"/><path class="cls-55" d="M152.75,108.44a8,8,0,0,0-7.28,0c-2,1.15-2,3,0,4.2a8.11,8.11,0,0,0,7.28,0C154.75,111.48,154.75,109.59,152.75,108.44Z"/><path class="cls-147" d="M144,110.57v-1.18h.4a3.49,3.49,0,0,1,1.1-1c1.42-.82.47,2.3,0,4.2V114A2.61,2.61,0,0,1,144,112Z"/><path class="cls-135" d="M145.47,106.13a8.11,8.11,0,0,1,7.28,0l-3.64,2.49Z"/><polygon class="cls-148" points="152.75 106.13 152.75 108.44 149.11 110.92 149.11 108.62 152.75 106.13"/><polygon class="cls-3" points="149.11 108.62 145.47 106.13 145.47 108.44 149.11 110.92 149.11 108.62"/><path class="cls-149" d="M145.47,107.29c-2,1.15-2,3,0,4.2l3.64-1.72Z"/><polygon class="cls-150" points="149.11 109.77 149.11 110.92 145.47 112.64 145.47 111.49 149.11 109.77"/><g class="cls-6"><path class="cls-7" d="M134.49,61.2a.59.59,0,0,1,0-1.12L145.06,54A2.14,2.14,0,0,1,147,54l10.57,6.1a.59.59,0,0,1,0,1.12L147,67.3a2.14,2.14,0,0,1-1.94,0Z"/><path class="cls-8" d="M134.59,61.19a.58.58,0,0,1,0-1.1L145.07,54A2.1,2.1,0,0,1,147,54l10.48,6.05a.58.58,0,0,1,0,1.1l-10.48,6a2.1,2.1,0,0,1-1.92,0Z"/><path class="cls-9" d="M134.69,61.19a.58.58,0,0,1,0-1.1l10.39-6a2.12,2.12,0,0,1,1.9,0l10.39,6a.58.58,0,0,1,0,1.1l-10.39,6a2.12,2.12,0,0,1-1.9,0Z"/><path class="cls-10" d="M134.78,61.18a.57.57,0,0,1,0-1.08l10.31-6a2.08,2.08,0,0,1,1.88,0l10.3,6a.57.57,0,0,1,0,1.08L147,67.13a2.08,2.08,0,0,1-1.88,0Z"/><path class="cls-11" d="M134.88,61.18a.57.57,0,0,1,0-1.08l10.22-5.9a2.1,2.1,0,0,1,1.86,0l10.22,5.9a.57.57,0,0,1,0,1.08L147,67.08a2.1,2.1,0,0,1-1.86,0Z"/><path class="cls-12" d="M135,61.17a.56.56,0,0,1,0-1.06l10.12-5.85a2.08,2.08,0,0,1,1.85,0l10.13,5.85a.56.56,0,0,1,0,1.06L147,67a2.08,2.08,0,0,1-1.85,0Z"/><path class="cls-13" d="M135.08,61.17a.56.56,0,0,1,0-1.06l10-5.79a2.05,2.05,0,0,1,1.84,0l10,5.79a.56.56,0,0,1,0,1.06L147,67a2.05,2.05,0,0,1-1.84,0Z"/><path class="cls-14" d="M135.17,61.16a.55.55,0,0,1,0-1l10-5.75a2,2,0,0,1,1.82,0l9.94,5.75a.55.55,0,0,1,0,1l-9.94,5.75a2,2,0,0,1-1.82,0Z"/><path class="cls-15" d="M135.27,61.16a.55.55,0,0,1,0-1l9.86-5.69a2,2,0,0,1,1.8,0l9.86,5.69a.55.55,0,0,1,0,1l-9.86,5.69a2,2,0,0,1-1.8,0Z"/><path class="cls-16" d="M135.37,61.15c-.49-.28-.49-.74,0-1l9.77-5.64a2,2,0,0,1,1.78,0l9.77,5.64c.49.29.49.75,0,1l-9.77,5.64a1.93,1.93,0,0,1-1.78,0Z"/><path class="cls-17" d="M135.47,61.15a.54.54,0,0,1,0-1l9.67-5.59a2,2,0,0,1,1.77,0l9.68,5.59a.54.54,0,0,1,0,1l-9.68,5.59a2,2,0,0,1-1.77,0Z"/><path class="cls-18" d="M135.56,61.15a.54.54,0,0,1,0-1l9.59-5.53a2,2,0,0,1,1.76,0l9.58,5.53a.54.54,0,0,1,0,1l-9.58,5.53a2,2,0,0,1-1.76,0Z"/><path class="cls-19" d="M135.66,61.14a.53.53,0,0,1,0-1l9.5-5.49a2,2,0,0,1,1.74,0l9.5,5.49a.53.53,0,0,1,0,1l-9.5,5.49a2,2,0,0,1-1.74,0Z"/><path class="cls-20" d="M135.76,61.14a.53.53,0,0,1,0-1l9.41-5.43a1.93,1.93,0,0,1,1.72,0l9.41,5.43a.53.53,0,0,1,0,1l-9.41,5.43a1.93,1.93,0,0,1-1.72,0Z"/><path class="cls-21" d="M135.86,61.13a.52.52,0,0,1,0-1l9.32-5.38a1.89,1.89,0,0,1,1.7,0l9.32,5.38a.52.52,0,0,1,0,1l-9.32,5.38a1.89,1.89,0,0,1-1.7,0Z"/><path class="cls-22" d="M136,61.13a.52.52,0,0,1,0-1l9.24-5.33a1.84,1.84,0,0,1,1.68,0l9.24,5.33a.52.52,0,0,1,0,1l-9.24,5.33a1.84,1.84,0,0,1-1.68,0Z"/><path class="cls-23" d="M136.05,61.12a.51.51,0,0,1,0-1l9.14-5.28a1.82,1.82,0,0,1,1.67,0L156,60.16a.51.51,0,0,1,0,1l-9.15,5.28a1.82,1.82,0,0,1-1.67,0Z"/><path class="cls-24" d="M136.15,61.12c-.46-.27-.46-.7,0-1l9-5.23a1.86,1.86,0,0,1,1.66,0l9,5.23c.46.26.46.69,0,1l-9,5.22a1.8,1.8,0,0,1-1.66,0Z"/><path class="cls-25" d="M136.25,61.11c-.46-.26-.46-.68,0-.94l9-5.18a1.82,1.82,0,0,1,1.64,0l9,5.18a.5.5,0,0,1,0,.94l-9,5.18a1.82,1.82,0,0,1-1.64,0Z"/><path class="cls-26" d="M136.34,61.11a.5.5,0,0,1,0-.94l8.88-5.12a1.78,1.78,0,0,1,1.62,0l8.88,5.12a.5.5,0,0,1,0,.94l-8.88,5.12a1.78,1.78,0,0,1-1.62,0Z"/><path class="cls-27" d="M136.44,61.1a.49.49,0,0,1,0-.92l8.79-5.08a1.8,1.8,0,0,1,1.6,0l8.79,5.08a.49.49,0,0,1,0,.92l-8.79,5.08a1.8,1.8,0,0,1-1.6,0Z"/><path class="cls-28" d="M136.54,61.1a.49.49,0,0,1,0-.92l8.69-5a1.78,1.78,0,0,1,1.59,0l8.7,5a.49.49,0,0,1,0,.92l-8.7,5a1.78,1.78,0,0,1-1.59,0Z"/><path class="cls-29" d="M136.63,61.09a.48.48,0,0,1,0-.9l8.61-5a1.76,1.76,0,0,1,1.58,0l8.6,5c.44.25.44.65,0,.9l-8.6,5a1.76,1.76,0,0,1-1.58,0Z"/><path class="cls-30" d="M136.73,61.09a.48.48,0,0,1,0-.9l8.52-4.92a1.72,1.72,0,0,1,1.56,0l8.52,4.92a.48.48,0,0,1,0,.9L146.81,66a1.78,1.78,0,0,1-1.56,0Z"/><path class="cls-31" d="M136.83,61.08a.47.47,0,0,1,0-.89l8.43-4.86a1.67,1.67,0,0,1,1.54,0l8.43,4.86a.47.47,0,0,1,0,.89L146.8,66a1.67,1.67,0,0,1-1.54,0Z"/><path class="cls-32" d="M136.93,61.08a.46.46,0,0,1,0-.88l8.34-4.82a1.69,1.69,0,0,1,1.52,0l8.34,4.82a.46.46,0,0,1,0,.88l-8.34,4.82a1.69,1.69,0,0,1-1.52,0Z"/><path class="cls-33" d="M137,61.07a.46.46,0,0,1,0-.87l8.26-4.76a1.65,1.65,0,0,1,1.5,0L155,60.2c.42.24.42.64,0,.87l-8.25,4.77a1.65,1.65,0,0,1-1.5,0Z"/><path class="cls-34" d="M137.12,61.07a.45.45,0,0,1,0-.86l8.16-4.71a1.65,1.65,0,0,1,1.5,0l8.16,4.71a.45.45,0,0,1,0,.86l-8.16,4.71a1.65,1.65,0,0,1-1.5,0Z"/><path class="cls-35" d="M137.22,61.07a.45.45,0,0,1,0-.86l8.07-4.66a1.67,1.67,0,0,1,1.48,0l8.07,4.66a.45.45,0,0,1,0,.86l-8.07,4.66a1.67,1.67,0,0,1-1.48,0Z"/><path class="cls-36" d="M137.32,61.06a.44.44,0,0,1,0-.84l8-4.61a1.63,1.63,0,0,1,1.46,0l8,4.61a.44.44,0,0,1,0,.84l-8,4.61a1.63,1.63,0,0,1-1.46,0Z"/><path class="cls-37" d="M137.41,61.06a.45.45,0,0,1,0-.84l7.9-4.55a1.59,1.59,0,0,1,1.44,0l7.9,4.55a.45.45,0,0,1,0,.84l-7.9,4.55a1.59,1.59,0,0,1-1.44,0Z"/><path class="cls-38" d="M137.51,61.05a.43.43,0,0,1,0-.82l7.81-4.51a1.55,1.55,0,0,1,1.42,0l7.81,4.51a.43.43,0,0,1,0,.82l-7.81,4.51a1.61,1.61,0,0,1-1.42,0Z"/><path class="cls-39" d="M137.61,61.05a.43.43,0,0,1,0-.82l7.71-4.45a1.53,1.53,0,0,1,1.41,0l7.72,4.45a.43.43,0,0,1,0,.82l-7.72,4.45a1.53,1.53,0,0,1-1.41,0Z"/><path class="cls-40" d="M137.71,61a.42.42,0,0,1,0-.8l7.62-4.41a1.57,1.57,0,0,1,1.4,0l7.62,4.41a.42.42,0,0,1,0,.8l-7.62,4.41a1.57,1.57,0,0,1-1.4,0Z"/><path class="cls-41" d="M137.8,61a.42.42,0,0,1,0-.8l7.54-4.35a1.53,1.53,0,0,1,1.38,0l7.54,4.35a.43.43,0,0,1,0,.8l-7.54,4.35a1.53,1.53,0,0,1-1.38,0Z"/><path class="cls-42" d="M137.9,61a.41.41,0,0,1,0-.78l7.45-4.3a1.48,1.48,0,0,1,1.36,0l7.45,4.3a.41.41,0,0,1,0,.78l-7.45,4.3a1.48,1.48,0,0,1-1.36,0Z"/><path class="cls-43" d="M138,61c-.37-.22-.37-.57,0-.78L145.36,56a1.5,1.5,0,0,1,1.34,0l7.36,4.25c.37.21.37.56,0,.78l-7.36,4.25a1.5,1.5,0,0,1-1.34,0Z"/><path class="cls-44" d="M138.09,61a.4.4,0,0,1,0-.76l7.27-4.2a1.48,1.48,0,0,1,1.33,0l7.27,4.2c.37.21.37.55,0,.76l-7.27,4.2a1.48,1.48,0,0,1-1.33,0Z"/><path class="cls-45" d="M138.19,61a.4.4,0,0,1,0-.76l7.18-4.15a1.53,1.53,0,0,1,1.32,0l7.18,4.15a.4.4,0,0,1,0,.76l-7.18,4.14a1.46,1.46,0,0,1-1.32,0Z"/><path class="cls-46" d="M138.29,61a.39.39,0,0,1,0-.74l7.09-4.1a1.48,1.48,0,0,1,1.3,0l7.09,4.1a.39.39,0,0,1,0,.74l-7.09,4.1a1.48,1.48,0,0,1-1.3,0Z"/><path class="cls-47" d="M138.39,61a.39.39,0,0,1,0-.74l7-4a1.38,1.38,0,0,1,1.28,0l7,4a.39.39,0,0,1,0,.74l-7,4a1.38,1.38,0,0,1-1.28,0Z"/><path class="cls-3" d="M138.48,61a.39.39,0,0,1,0-.73l6.92-4a1.4,1.4,0,0,1,1.26,0l6.91,4c.35.21.35.53,0,.73l-6.91,4a1.4,1.4,0,0,1-1.26,0Z"/></g><polygon class="cls-151" points="146.16 45.08 137.22 50.24 146.16 55.41 146.16 45.08 146.16 45.08"/><polygon class="cls-60" points="146.16 45.08 146.16 55.41 155.11 50.24 146.16 45.08"/><polygon class="cls-60" points="137.22 50.24 137.22 60.58 146.16 65.74 146.16 55.41 137.22 50.24"/><polygon class="cls-151" points="146.16 65.74 155.11 60.58 155.11 50.24 146.16 55.41 146.16 65.74"/><polygon class="cls-152" points="137.22 50.24 133.93 46.2 142.88 41.03 146.16 45.08 137.22 50.24"/><polygon class="cls-152" points="155.11 50.24 158.4 46.2 149.45 41.03 146.16 45.08 155.11 50.24"/><polygon class="cls-133" points="155.11 54.89 155.11 50.73 146.16 55.42 148.54 58.72 155.11 54.89"/><polygon class="cls-152" points="146.17 55.42 148.9 58 157.84 52.82 155.11 50.24 146.17 55.42"/><polygon class="cls-133" points="137.22 50.79 137.22 54.94 143.79 58.72 146.16 55.43 146.16 55.42 137.22 50.79 137.22 50.79"/><polygon class="cls-152" points="146.16 55.42 143.44 58 134.5 52.82 137.22 50.24 146.16 55.42"/><ellipse class="cls-153" cx="146.13" cy="52.61" rx="6.8" ry="3.92"/><path class="cls-3" d="M147.54,49.17l-.27.23h-2.4l-.26-.24a3.72,3.72,0,0,1-1.2-2.73v-1h5.46v.94A3.72,3.72,0,0,1,147.54,49.17Z"/><path class="cls-3" d="M146.49,50.13h-.89a.79.79,0,0,1-.8-.79h2.48A.79.79,0,0,1,146.49,50.13Z"/><path class="cls-154" d="M148.06,44.27a4.28,4.28,0,0,0-3.85,0,1.18,1.18,0,0,0,0,2.23,4.28,4.28,0,0,0,3.85,0A1.18,1.18,0,0,0,148.06,44.27Z"/><path class="cls-155" d="M146.14,35.14a5,5,0,0,0-2.73,9.17v1.13h0a1.41,1.41,0,0,0,.82,1.07,4.26,4.26,0,0,0,3.84,0,1.32,1.32,0,0,0,.78-1.06h0V44.31a5,5,0,0,0-2.73-9.17Z"/><path class="cls-55" d="M143.35,40.68a3.26,3.26,0,0,1,3.27-3.27c1.66,0,1.54-1.39-.59-1.39a3.85,3.85,0,0,0-3.85,3.85C142.18,41.22,143.35,41.82,143.35,40.68Z"/><path class="cls-156" d="M148.07,46.94a4.26,4.26,0,0,1-3.84,0,1.44,1.44,0,0,1-.82-1.08v.38a1.41,1.41,0,0,0,.82,1.07,4.26,4.26,0,0,0,3.84,0,1.32,1.32,0,0,0,.78-1.06h0v-.38h0A1.33,1.33,0,0,1,148.07,46.94Z"/><path class="cls-156" d="M148.05,48a4.29,4.29,0,0,1-3.84,0,1.73,1.73,0,0,1-.65-.6,3.28,3.28,0,0,0,.27.7,2.88,2.88,0,0,0,.38.28,4.26,4.26,0,0,0,3.84,0,2,2,0,0,0,.32-.22,3.64,3.64,0,0,0,.33-.76A1.68,1.68,0,0,1,148.05,48Z"/><path class="cls-157" d="M146.13,34.73h0a.42.42,0,0,1-.4-.41V31.2a.41.41,0,0,1,.41-.41h0a.41.41,0,0,1,.41.41l0,3.12A.41.41,0,0,1,146.13,34.73Zm3.33.59,1.57-2.7a.4.4,0,0,0-.14-.55.4.4,0,0,0-.56.14l-1.57,2.7a.4.4,0,0,0,.14.55.42.42,0,0,0,.21.06A.41.41,0,0,0,149.46,35.32Zm2,2.32,2.71-1.54a.4.4,0,0,0,.16-.55.41.41,0,0,0-.56-.15l-2.71,1.54a.4.4,0,0,0-.15.55.4.4,0,0,0,.35.21A.36.36,0,0,0,151.49,37.64Zm-10.13-.18a.4.4,0,0,0-.14-.56l-2.67-1.6a.41.41,0,0,0-.56.14.4.4,0,0,0,.14.56l2.67,1.6a.42.42,0,0,0,.21.06A.39.39,0,0,0,141.36,37.46Zm2-2a.4.4,0,0,0,.16-.55l-1.52-2.73a.41.41,0,0,0-.71.4l1.52,2.73a.39.39,0,0,0,.35.2A.35.35,0,0,0,143.41,35.44Z"/></g></g></g></svg>